M48
;DRILL file {Pcbnew (2012-01-19 BZR 3256)-stable} date 5/12/2014 20:23:02
;FORMAT={-:-/ absolute / metric / decimal}
FMAT,2
METRIC,TZ
T1C0.813
T2C0.899
T3C0.914
T4C1.001
T5C1.016
T6C1.600
T7C2.311
T8C3.048
T9C3.251
T10C3.350
%
G90
G05
M71
T1
X45.720Y-101.600
X45.720Y-104.140
X49.530Y-69.850
X49.530Y-72.390
X49.530Y-74.930
X49.530Y-77.470
X49.530Y-80.010
X49.530Y-82.550
X49.530Y-85.090
X49.530Y-87.630
X52.070Y-49.530
X52.070Y-59.690
X52.070Y-93.980
X54.610Y-49.530
X54.610Y-59.690
X54.610Y-93.980
X55.880Y-101.600
X55.880Y-104.140
X57.150Y-69.850
X57.150Y-72.390
X57.150Y-74.930
X57.150Y-77.470
X57.150Y-80.010
X57.150Y-82.550
X57.150Y-85.090
X57.150Y-87.630
X59.690Y-52.070
X59.690Y-54.610
X61.595Y-95.250
X61.595Y-97.790
X86.360Y-52.070
X86.360Y-54.610
X107.950Y-59.690
X107.950Y-62.230
X107.950Y-64.770
X107.950Y-67.310
X107.950Y-69.850
X107.950Y-72.390
X107.950Y-74.930
X107.950Y-77.470
X107.950Y-80.010
X107.950Y-82.550
X107.950Y-85.090
X107.950Y-87.630
X107.950Y-90.170
X107.950Y-92.710
X107.950Y-95.250
X107.950Y-97.790
X107.950Y-100.330
X107.950Y-102.870
X107.950Y-105.410
X110.490Y-59.690
X110.490Y-62.230
X110.490Y-64.770
X110.490Y-67.310
X110.490Y-69.850
X110.490Y-72.390
X110.490Y-74.930
X110.490Y-77.470
X110.490Y-80.010
X110.490Y-82.550
X110.490Y-85.090
X110.490Y-87.630
X110.490Y-90.170
X110.490Y-92.710
X110.490Y-95.250
X110.490Y-97.790
X110.490Y-100.330
X110.490Y-102.870
X110.490Y-105.410
X111.760Y-52.070
X111.760Y-54.610
X113.030Y-59.690
X113.030Y-62.230
X113.030Y-64.770
X113.030Y-67.310
X113.030Y-69.850
X113.030Y-72.390
X113.030Y-74.930
X113.030Y-77.470
X113.030Y-80.010
X113.030Y-82.550
X113.030Y-85.090
X113.030Y-87.630
X113.030Y-90.170
X113.030Y-92.710
X113.030Y-95.250
X113.030Y-97.790
X113.030Y-100.330
X113.030Y-102.870
X113.030Y-105.410
X115.570Y-59.690
X115.570Y-62.230
X115.570Y-64.770
X115.570Y-67.310
X115.570Y-69.850
X115.570Y-72.390
X115.570Y-74.930
X115.570Y-77.470
X115.570Y-80.010
X115.570Y-82.550
X115.570Y-85.090
X115.570Y-87.630
X115.570Y-90.170
X115.570Y-92.710
X115.570Y-95.250
X115.570Y-97.790
X115.570Y-100.330
X115.570Y-102.870
X115.570Y-105.410
X118.110Y-59.690
X118.110Y-62.230
X118.110Y-64.770
X118.110Y-67.310
X118.110Y-69.850
X118.110Y-72.390
X118.110Y-74.930
X118.110Y-77.470
X118.110Y-80.010
X118.110Y-82.550
X118.110Y-85.090
X118.110Y-87.630
X118.110Y-90.170
X118.110Y-92.710
X118.110Y-95.250
X118.110Y-97.790
X118.110Y-100.330
X118.110Y-102.870
X118.110Y-105.410
X120.650Y-59.690
X120.650Y-62.230
X120.650Y-64.770
X120.650Y-67.310
X120.650Y-69.850
X120.650Y-72.390
X120.650Y-74.930
X120.650Y-77.470
X120.650Y-80.010
X120.650Y-82.550
X120.650Y-85.090
X120.650Y-87.630
X120.650Y-90.170
X120.650Y-92.710
X120.650Y-95.250
X120.650Y-97.790
X120.650Y-100.330
X120.650Y-102.870
X120.650Y-105.410
X123.190Y-59.690
X123.190Y-62.230
X123.190Y-64.770
X123.190Y-67.310
X123.190Y-69.850
X123.190Y-72.390
X123.190Y-74.930
X123.190Y-77.470
X123.190Y-80.010
X123.190Y-82.550
X123.190Y-85.090
X123.190Y-87.630
X123.190Y-90.170
X123.190Y-92.710
X123.190Y-95.250
X123.190Y-97.790
X123.190Y-100.330
X123.190Y-102.870
X123.190Y-105.410
X125.730Y-59.690
X125.730Y-62.230
X125.730Y-64.770
X125.730Y-67.310
X125.730Y-69.850
X125.730Y-72.390
X125.730Y-74.930
X125.730Y-77.470
X125.730Y-80.010
X125.730Y-82.550
X125.730Y-85.090
X125.730Y-87.630
X125.730Y-90.170
X125.730Y-92.710
X125.730Y-95.250
X125.730Y-97.790
X125.730Y-100.330
X125.730Y-102.870
X125.730Y-105.410
T2
X95.758Y-51.689
X97.028Y-49.149
X98.298Y-51.689
X99.568Y-49.149
X100.838Y-51.689
X102.108Y-49.149
X103.378Y-51.689
X104.648Y-49.149
T3
X75.629Y-45.009
X78.118Y-45.009
X80.124Y-45.009
X82.614Y-45.009
T4
X71.120Y-72.390
X71.120Y-74.930
X71.120Y-77.470
X71.120Y-80.010
X71.120Y-82.550
X71.120Y-85.090
X71.120Y-87.630
X71.120Y-90.170
X71.120Y-92.710
X71.120Y-95.250
X71.120Y-97.790
X71.120Y-100.330
X71.120Y-102.870
X71.120Y-105.410
X71.120Y-107.950
X71.120Y-110.490
X71.120Y-113.030
X71.120Y-115.570
X71.120Y-118.110
X71.120Y-120.650
X73.660Y-72.390
X73.660Y-74.930
X73.660Y-77.470
X73.660Y-80.010
X73.660Y-82.550
X73.660Y-85.090
X73.660Y-87.630
X73.660Y-90.170
X73.660Y-92.710
X73.660Y-95.250
X73.660Y-97.790
X73.660Y-100.330
X73.660Y-102.870
X73.660Y-105.410
X73.660Y-107.950
X73.660Y-110.490
X73.660Y-113.030
X73.660Y-115.570
X73.660Y-118.110
X73.660Y-120.650
X96.520Y-72.390
X96.520Y-74.930
X96.520Y-77.470
X96.520Y-80.010
X96.520Y-82.550
X96.520Y-85.090
X96.520Y-87.630
X96.520Y-90.170
X96.520Y-92.710
X96.520Y-95.250
X96.520Y-97.790
X96.520Y-100.330
X96.520Y-102.870
X96.520Y-105.410
X96.520Y-107.950
X96.520Y-110.490
X96.520Y-113.030
X96.520Y-115.570
X96.520Y-118.110
X96.520Y-120.650
X99.060Y-72.390
X99.060Y-74.930
X99.060Y-77.470
X99.060Y-80.010
X99.060Y-82.550
X99.060Y-85.090
X99.060Y-87.630
X99.060Y-90.170
X99.060Y-92.710
X99.060Y-95.250
X99.060Y-97.790
X99.060Y-100.330
X99.060Y-102.870
X99.060Y-105.410
X99.060Y-107.950
X99.060Y-110.490
X99.060Y-113.030
X99.060Y-115.570
X99.060Y-118.110
X99.060Y-120.650
T5
X35.433Y-59.436
X35.433Y-62.230
X35.433Y-64.897
X35.433Y-67.691
X35.560Y-83.820
X35.560Y-86.360
X35.560Y-88.900
X35.560Y-91.440
X35.560Y-93.980
X35.560Y-99.060
X35.560Y-101.600
X35.560Y-104.140
X38.100Y-83.820
X38.100Y-86.360
X38.100Y-88.900
X38.100Y-91.440
X38.100Y-93.980
X38.227Y-58.039
X38.227Y-60.833
X38.227Y-63.500
X38.227Y-66.294
X38.227Y-68.961
X39.370Y-110.490
X39.370Y-113.030
X39.370Y-115.570
X39.370Y-118.110
X39.370Y-120.650
X44.450Y-110.490
X44.450Y-113.030
X44.450Y-115.570
X44.450Y-118.110
X44.450Y-120.650
X46.990Y-110.490
X46.990Y-113.030
X46.990Y-115.570
X46.990Y-118.110
X46.990Y-120.650
X49.530Y-40.640
X52.070Y-40.640
X52.070Y-110.490
X52.070Y-113.030
X52.070Y-115.570
X52.070Y-118.110
X52.070Y-120.650
X54.610Y-40.640
X57.150Y-40.640
X62.230Y-69.850
X62.230Y-72.390
X62.230Y-74.930
X62.230Y-77.470
X93.599Y-38.735
X96.114Y-38.735
X104.292Y-38.735
X106.807Y-38.735
X110.490Y-110.490
X110.490Y-113.030
X110.490Y-115.570
X110.490Y-118.110
X110.490Y-120.650
X115.570Y-110.490
X115.570Y-113.030
X115.570Y-115.570
X115.570Y-118.110
X115.570Y-120.650
X118.110Y-110.490
X118.110Y-113.030
X118.110Y-115.570
X118.110Y-118.110
X118.110Y-120.650
X123.190Y-110.490
X123.190Y-113.030
X123.190Y-115.570
X123.190Y-118.110
X123.190Y-120.650
T6
X92.329Y-45.847
X108.077Y-45.847
T7
X72.555Y-42.291
X85.687Y-42.291
T8
X36.830Y-51.054
X36.830Y-76.073
T9
X94.488Y-42.799
X105.918Y-42.799
T10
X35.560Y-40.640
X35.560Y-129.540
X124.460Y-40.640
X124.460Y-129.540
T0
M30
