G04 (created by PCBNEW-RS274X (2012-01-19 BZR 3256)-stable) date 5/12/2014 21:22:13*
G01*
G70*
G90*
%MOIN*%
G04 Gerber Fmt 3.4, Leading zero omitted, Abs format*
%FSLAX34Y34*%
G04 APERTURE LIST*
%ADD10C,0.006000*%
%ADD11C,0.012000*%
%ADD12C,0.015000*%
%ADD13C,0.009900*%
%ADD14C,0.010000*%
%ADD15C,0.007000*%
%ADD16C,0.005000*%
%ADD17C,0.008000*%
%ADD18C,0.011300*%
G04 APERTURE END LIST*
G54D10*
G54D11*
X45824Y-42614D02*
X45824Y-42957D01*
X45824Y-42785D02*
X45024Y-42785D01*
X45138Y-42842D01*
X45214Y-42900D01*
X45252Y-42957D01*
X45024Y-42243D02*
X45024Y-42186D01*
X45062Y-42129D01*
X45100Y-42100D01*
X45176Y-42071D01*
X45329Y-42043D01*
X45519Y-42043D01*
X45671Y-42071D01*
X45748Y-42100D01*
X45786Y-42129D01*
X45824Y-42186D01*
X45824Y-42243D01*
X45786Y-42300D01*
X45748Y-42329D01*
X45671Y-42357D01*
X45519Y-42386D01*
X45329Y-42386D01*
X45176Y-42357D01*
X45100Y-42329D01*
X45062Y-42300D01*
X45024Y-42243D01*
X46824Y-42714D02*
X46824Y-42599D01*
X46786Y-42542D01*
X46748Y-42514D01*
X46633Y-42456D01*
X46481Y-42428D01*
X46176Y-42428D01*
X46100Y-42456D01*
X46062Y-42485D01*
X46024Y-42542D01*
X46024Y-42656D01*
X46062Y-42714D01*
X46100Y-42742D01*
X46176Y-42771D01*
X46367Y-42771D01*
X46443Y-42742D01*
X46481Y-42714D01*
X46519Y-42656D01*
X46519Y-42542D01*
X46481Y-42485D01*
X46443Y-42456D01*
X46367Y-42428D01*
X45100Y-48571D02*
X45062Y-48542D01*
X45024Y-48485D01*
X45024Y-48342D01*
X45062Y-48285D01*
X45100Y-48256D01*
X45176Y-48228D01*
X45252Y-48228D01*
X45367Y-48256D01*
X45824Y-48599D01*
X45824Y-48228D01*
X47024Y-48228D02*
X47024Y-48571D01*
X47024Y-48399D02*
X46224Y-48399D01*
X46338Y-48456D01*
X46414Y-48514D01*
X46452Y-48571D01*
X17824Y-42514D02*
X17824Y-42857D01*
X17824Y-42685D02*
X17024Y-42685D01*
X17138Y-42742D01*
X17214Y-42800D01*
X17252Y-42857D01*
X17024Y-42143D02*
X17024Y-42086D01*
X17062Y-42029D01*
X17100Y-42000D01*
X17176Y-41971D01*
X17329Y-41943D01*
X17519Y-41943D01*
X17671Y-41971D01*
X17748Y-42000D01*
X17786Y-42029D01*
X17824Y-42086D01*
X17824Y-42143D01*
X17786Y-42200D01*
X17748Y-42229D01*
X17671Y-42257D01*
X17519Y-42286D01*
X17329Y-42286D01*
X17176Y-42257D01*
X17100Y-42229D01*
X17062Y-42200D01*
X17024Y-42143D01*
X19024Y-42614D02*
X19024Y-42499D01*
X18986Y-42442D01*
X18948Y-42414D01*
X18833Y-42356D01*
X18681Y-42328D01*
X18376Y-42328D01*
X18300Y-42356D01*
X18262Y-42385D01*
X18224Y-42442D01*
X18224Y-42556D01*
X18262Y-42614D01*
X18300Y-42642D01*
X18376Y-42671D01*
X18567Y-42671D01*
X18643Y-42642D01*
X18681Y-42614D01*
X18719Y-42556D01*
X18719Y-42442D01*
X18681Y-42385D01*
X18643Y-42356D01*
X18567Y-42328D01*
X17000Y-48671D02*
X16962Y-48642D01*
X16924Y-48585D01*
X16924Y-48442D01*
X16962Y-48385D01*
X17000Y-48356D01*
X17076Y-48328D01*
X17152Y-48328D01*
X17267Y-48356D01*
X17724Y-48699D01*
X17724Y-48328D01*
X19124Y-48228D02*
X19124Y-48571D01*
X19124Y-48399D02*
X18324Y-48399D01*
X18438Y-48456D01*
X18514Y-48514D01*
X18552Y-48571D01*
G54D12*
X18600Y-46000D02*
X18700Y-46000D01*
X18600Y-45000D02*
X18600Y-46000D01*
X46700Y-45900D02*
X46800Y-45900D01*
X46700Y-45000D02*
X46700Y-45900D01*
X46900Y-45900D02*
X47000Y-45900D01*
X46900Y-45000D02*
X46900Y-45900D01*
X46800Y-45000D02*
X46800Y-46000D01*
X46600Y-46000D02*
X47000Y-46000D01*
X46600Y-44900D02*
X46600Y-46000D01*
X47000Y-44900D02*
X46600Y-44900D01*
X18900Y-45900D02*
X19000Y-45900D01*
X18900Y-45000D02*
X18900Y-45900D01*
X18800Y-45900D02*
X18900Y-45900D01*
X18800Y-45000D02*
X18800Y-45900D01*
X18700Y-46000D02*
X19000Y-46000D01*
X18700Y-45000D02*
X18700Y-46000D01*
X19000Y-45000D02*
X18700Y-45000D01*
X15450Y-35400D02*
X15500Y-35400D01*
X15450Y-34500D02*
X15450Y-35400D01*
X15300Y-35500D02*
X15450Y-35500D01*
X15300Y-34450D02*
X15300Y-35500D01*
X15500Y-34450D02*
X15300Y-34450D01*
G54D11*
X15926Y-27886D02*
X15926Y-28001D01*
X15964Y-28058D01*
X16002Y-28086D01*
X16117Y-28144D01*
X16269Y-28172D01*
X16574Y-28172D01*
X16650Y-28144D01*
X16688Y-28115D01*
X16726Y-28058D01*
X16726Y-27944D01*
X16688Y-27886D01*
X16650Y-27858D01*
X16574Y-27829D01*
X16383Y-27829D01*
X16307Y-27858D01*
X16269Y-27886D01*
X16231Y-27944D01*
X16231Y-28058D01*
X16269Y-28115D01*
X16307Y-28144D01*
X16383Y-28172D01*
X16726Y-22115D02*
X16726Y-22001D01*
X16688Y-21944D01*
X16650Y-21915D01*
X16536Y-21858D01*
X16383Y-21829D01*
X16079Y-21829D01*
X16002Y-21858D01*
X15964Y-21886D01*
X15926Y-21944D01*
X15926Y-22058D01*
X15964Y-22115D01*
X16002Y-22144D01*
X16079Y-22172D01*
X16269Y-22172D01*
X16345Y-22144D01*
X16383Y-22115D01*
X16421Y-22058D01*
X16421Y-21944D01*
X16383Y-21886D01*
X16345Y-21858D01*
X16269Y-21829D01*
X18476Y-28644D02*
X18476Y-28358D01*
X18095Y-28329D01*
X18133Y-28358D01*
X18171Y-28415D01*
X18171Y-28558D01*
X18133Y-28615D01*
X18095Y-28644D01*
X18019Y-28672D01*
X17829Y-28672D01*
X17752Y-28644D01*
X17714Y-28615D01*
X17676Y-28558D01*
X17676Y-28415D01*
X17714Y-28358D01*
X17752Y-28329D01*
X18176Y-21672D02*
X18176Y-21329D01*
X18176Y-21501D02*
X18976Y-21501D01*
X18862Y-21444D01*
X18786Y-21386D01*
X18748Y-21329D01*
X15676Y-31886D02*
X15676Y-31543D01*
X15676Y-31715D02*
X16476Y-31715D01*
X16362Y-31658D01*
X16286Y-31600D01*
X16248Y-31543D01*
X16476Y-32257D02*
X16476Y-32314D01*
X16438Y-32371D01*
X16400Y-32400D01*
X16324Y-32429D01*
X16171Y-32457D01*
X15981Y-32457D01*
X15829Y-32429D01*
X15752Y-32400D01*
X15714Y-32371D01*
X15676Y-32314D01*
X15676Y-32257D01*
X15714Y-32200D01*
X15752Y-32171D01*
X15829Y-32143D01*
X15981Y-32114D01*
X16171Y-32114D01*
X16324Y-32143D01*
X16400Y-32171D01*
X16438Y-32200D01*
X16476Y-32257D01*
X17676Y-31886D02*
X17676Y-32001D01*
X17714Y-32058D01*
X17752Y-32086D01*
X17867Y-32144D01*
X18019Y-32172D01*
X18324Y-32172D01*
X18400Y-32144D01*
X18438Y-32115D01*
X18476Y-32058D01*
X18476Y-31944D01*
X18438Y-31886D01*
X18400Y-31858D01*
X18324Y-31829D01*
X18133Y-31829D01*
X18057Y-31858D01*
X18019Y-31886D01*
X17981Y-31944D01*
X17981Y-32058D01*
X18019Y-32115D01*
X18057Y-32144D01*
X18133Y-32172D01*
X16400Y-37829D02*
X16438Y-37858D01*
X16476Y-37915D01*
X16476Y-38058D01*
X16438Y-38115D01*
X16400Y-38144D01*
X16324Y-38172D01*
X16248Y-38172D01*
X16133Y-38144D01*
X15676Y-37801D01*
X15676Y-38172D01*
X17676Y-38172D02*
X17676Y-37829D01*
X17676Y-38001D02*
X18476Y-38001D01*
X18362Y-37944D01*
X18286Y-37886D01*
X18248Y-37829D01*
G54D12*
X17500Y-26500D02*
X19000Y-26500D01*
X17500Y-25500D02*
X19000Y-25500D01*
X17500Y-26000D02*
X16000Y-26000D01*
X17500Y-25000D02*
X16000Y-25000D01*
X17500Y-24000D02*
X16000Y-24000D01*
X17500Y-24500D02*
X19000Y-24500D01*
X17500Y-23500D02*
X19000Y-23500D01*
X17500Y-22000D02*
X17500Y-28000D01*
X17000Y-28000D02*
X18000Y-28000D01*
X16000Y-27000D02*
X17000Y-28000D01*
X17000Y-22000D02*
X18000Y-22000D01*
X16000Y-23000D02*
X17000Y-22000D01*
X19000Y-28000D02*
X18000Y-28000D01*
X19000Y-22000D02*
X19000Y-28000D01*
X18000Y-22000D02*
X19000Y-22000D01*
X16000Y-23000D02*
X16500Y-22500D01*
X16000Y-27000D02*
X16000Y-23000D01*
G54D11*
X16278Y-23172D02*
X16645Y-23172D01*
X16278Y-23723D01*
X16645Y-23723D01*
X16855Y-23723D02*
X16855Y-23172D01*
X17170Y-23723D01*
X17170Y-23172D01*
X18552Y-22331D02*
X18578Y-22278D01*
X18578Y-22200D01*
X18552Y-22121D01*
X18500Y-22068D01*
X18447Y-22042D01*
X18342Y-22016D01*
X18264Y-22016D01*
X18159Y-22042D01*
X18106Y-22068D01*
X18054Y-22121D01*
X18027Y-22200D01*
X18027Y-22252D01*
X18054Y-22331D01*
X18080Y-22357D01*
X18264Y-22357D01*
X18264Y-22252D01*
X18027Y-22593D02*
X18578Y-22593D01*
X18027Y-22908D01*
X18578Y-22908D01*
X18027Y-23170D02*
X18578Y-23170D01*
X18578Y-23301D01*
X18552Y-23380D01*
X18500Y-23433D01*
X18447Y-23459D01*
X18342Y-23485D01*
X18264Y-23485D01*
X18159Y-23459D01*
X18106Y-23433D01*
X18054Y-23380D01*
X18027Y-23301D01*
X18027Y-23170D01*
X16355Y-25565D02*
X16617Y-25565D01*
X16302Y-25723D02*
X16486Y-25172D01*
X16670Y-25723D01*
X16853Y-25723D02*
X16853Y-25172D01*
X17168Y-25723D01*
X17168Y-25172D01*
X18578Y-27146D02*
X18578Y-26883D01*
X18316Y-26857D01*
X18342Y-26883D01*
X18369Y-26936D01*
X18369Y-27067D01*
X18342Y-27119D01*
X18316Y-27146D01*
X18264Y-27172D01*
X18132Y-27172D01*
X18080Y-27146D01*
X18054Y-27119D01*
X18027Y-27067D01*
X18027Y-26936D01*
X18054Y-26883D01*
X18080Y-26857D01*
X18578Y-27329D02*
X18027Y-27513D01*
X18578Y-27697D01*
X17791Y-23672D02*
X18158Y-23672D01*
X17791Y-24223D01*
X18158Y-24223D01*
X18368Y-24223D02*
X18368Y-23672D01*
X18578Y-23672D01*
X18631Y-23698D01*
X18657Y-23724D01*
X18683Y-23776D01*
X18683Y-23855D01*
X18657Y-23908D01*
X18631Y-23934D01*
X18578Y-23960D01*
X18368Y-23960D01*
X17052Y-26491D02*
X17078Y-26438D01*
X17078Y-26360D01*
X17052Y-26281D01*
X17000Y-26228D01*
X16947Y-26202D01*
X16842Y-26176D01*
X16764Y-26176D01*
X16659Y-26202D01*
X16606Y-26228D01*
X16554Y-26281D01*
X16527Y-26360D01*
X16527Y-26412D01*
X16554Y-26491D01*
X16580Y-26517D01*
X16764Y-26517D01*
X16764Y-26412D01*
X16527Y-26753D02*
X17078Y-26753D01*
X16527Y-27068D01*
X17078Y-27068D01*
X16527Y-27330D02*
X17078Y-27330D01*
X17078Y-27461D01*
X17052Y-27540D01*
X17000Y-27593D01*
X16947Y-27619D01*
X16842Y-27645D01*
X16764Y-27645D01*
X16659Y-27619D01*
X16606Y-27593D01*
X16554Y-27540D01*
X16527Y-27461D01*
X16527Y-27330D01*
X17844Y-26065D02*
X18106Y-26065D01*
X17791Y-26223D02*
X17975Y-25672D01*
X18159Y-26223D01*
X18342Y-26223D02*
X18342Y-25672D01*
X18552Y-25672D01*
X18605Y-25698D01*
X18631Y-25724D01*
X18657Y-25776D01*
X18657Y-25855D01*
X18631Y-25908D01*
X18605Y-25934D01*
X18552Y-25960D01*
X18342Y-25960D01*
X16501Y-24434D02*
X16580Y-24460D01*
X16606Y-24486D01*
X16632Y-24539D01*
X16632Y-24618D01*
X16606Y-24670D01*
X16580Y-24696D01*
X16527Y-24723D01*
X16317Y-24723D01*
X16317Y-24172D01*
X16501Y-24172D01*
X16553Y-24198D01*
X16580Y-24224D01*
X16606Y-24276D01*
X16606Y-24329D01*
X16580Y-24381D01*
X16553Y-24408D01*
X16501Y-24434D01*
X16317Y-24434D01*
X16868Y-24723D02*
X16868Y-24172D01*
X17183Y-24723D01*
X17183Y-24172D01*
X18014Y-24934D02*
X18093Y-24960D01*
X18119Y-24986D01*
X18145Y-25039D01*
X18145Y-25118D01*
X18119Y-25170D01*
X18093Y-25196D01*
X18040Y-25223D01*
X17830Y-25223D01*
X17830Y-24672D01*
X18014Y-24672D01*
X18066Y-24698D01*
X18093Y-24724D01*
X18119Y-24776D01*
X18119Y-24829D01*
X18093Y-24881D01*
X18066Y-24908D01*
X18014Y-24934D01*
X17830Y-24934D01*
X18381Y-25223D02*
X18381Y-24672D01*
X18591Y-24672D01*
X18644Y-24698D01*
X18670Y-24724D01*
X18696Y-24776D01*
X18696Y-24855D01*
X18670Y-24908D01*
X18644Y-24934D01*
X18591Y-24960D01*
X18381Y-24960D01*
X14743Y-40324D02*
X14743Y-39524D01*
X14971Y-39524D01*
X15029Y-39562D01*
X15057Y-39600D01*
X15086Y-39676D01*
X15086Y-39790D01*
X15057Y-39867D01*
X15029Y-39905D01*
X14971Y-39943D01*
X14743Y-39943D01*
X15457Y-39524D02*
X15571Y-39524D01*
X15629Y-39562D01*
X15686Y-39638D01*
X15714Y-39790D01*
X15714Y-40057D01*
X15686Y-40210D01*
X15629Y-40286D01*
X15571Y-40324D01*
X15457Y-40324D01*
X15400Y-40286D01*
X15343Y-40210D01*
X15314Y-40057D01*
X15314Y-39790D01*
X15343Y-39638D01*
X15400Y-39562D01*
X15457Y-39524D01*
X15943Y-40286D02*
X16029Y-40324D01*
X16172Y-40324D01*
X16229Y-40286D01*
X16258Y-40248D01*
X16286Y-40171D01*
X16286Y-40095D01*
X16258Y-40019D01*
X16229Y-39981D01*
X16172Y-39943D01*
X16058Y-39905D01*
X16000Y-39867D01*
X15972Y-39829D01*
X15943Y-39752D01*
X15943Y-39676D01*
X15972Y-39600D01*
X16000Y-39562D01*
X16058Y-39524D01*
X16200Y-39524D01*
X16286Y-39562D01*
X14571Y-40524D02*
X14914Y-40524D01*
X14743Y-41324D02*
X14743Y-40524D01*
X15114Y-41324D02*
X15114Y-40524D01*
X15400Y-41324D02*
X15400Y-40524D01*
X15600Y-41095D01*
X15800Y-40524D01*
X15800Y-41324D01*
X16086Y-40905D02*
X16286Y-40905D01*
X16372Y-41324D02*
X16086Y-41324D01*
X16086Y-40524D01*
X16372Y-40524D01*
G54D12*
X17000Y-32500D02*
X17000Y-37500D01*
X18750Y-37500D02*
X15500Y-37500D01*
X18750Y-32500D02*
X18750Y-37500D01*
X15500Y-32500D02*
X18750Y-32500D01*
G54D11*
X15831Y-33698D02*
X15778Y-33672D01*
X15700Y-33672D01*
X15621Y-33698D01*
X15568Y-33750D01*
X15542Y-33803D01*
X15516Y-33908D01*
X15516Y-33986D01*
X15542Y-34091D01*
X15568Y-34144D01*
X15621Y-34196D01*
X15700Y-34223D01*
X15752Y-34223D01*
X15831Y-34196D01*
X15857Y-34170D01*
X15857Y-33986D01*
X15752Y-33986D01*
X16093Y-34223D02*
X16093Y-33672D01*
X16408Y-34223D01*
X16408Y-33672D01*
X16670Y-34223D02*
X16670Y-33672D01*
X16801Y-33672D01*
X16880Y-33698D01*
X16933Y-33750D01*
X16959Y-33803D01*
X16985Y-33908D01*
X16985Y-33986D01*
X16959Y-34091D01*
X16933Y-34144D01*
X16880Y-34196D01*
X16801Y-34223D01*
X16670Y-34223D01*
X15817Y-33223D02*
X15817Y-32672D01*
X16132Y-33223D01*
X16132Y-32672D01*
X16709Y-33170D02*
X16683Y-33196D01*
X16604Y-33223D01*
X16552Y-33223D01*
X16473Y-33196D01*
X16420Y-33144D01*
X16394Y-33091D01*
X16368Y-32986D01*
X16368Y-32908D01*
X16394Y-32803D01*
X16420Y-32750D01*
X16473Y-32698D01*
X16552Y-32672D01*
X16604Y-32672D01*
X16683Y-32698D01*
X16709Y-32724D01*
X17420Y-36698D02*
X17367Y-36672D01*
X17289Y-36672D01*
X17210Y-36698D01*
X17157Y-36750D01*
X17131Y-36803D01*
X17105Y-36908D01*
X17105Y-36986D01*
X17131Y-37091D01*
X17157Y-37144D01*
X17210Y-37196D01*
X17289Y-37223D01*
X17341Y-37223D01*
X17420Y-37196D01*
X17446Y-37170D01*
X17446Y-36986D01*
X17341Y-36986D01*
X17682Y-37223D02*
X17682Y-36672D01*
X17997Y-37223D01*
X17997Y-36672D01*
X18259Y-37223D02*
X18259Y-36672D01*
X18390Y-36672D01*
X18469Y-36698D01*
X18522Y-36750D01*
X18548Y-36803D01*
X18574Y-36908D01*
X18574Y-36986D01*
X18548Y-37091D01*
X18522Y-37144D01*
X18469Y-37196D01*
X18390Y-37223D01*
X18259Y-37223D01*
X17291Y-35672D02*
X17658Y-35672D01*
X17291Y-36223D01*
X17658Y-36223D01*
X17868Y-36223D02*
X17868Y-35672D01*
X18078Y-35672D01*
X18131Y-35698D01*
X18157Y-35724D01*
X18183Y-35776D01*
X18183Y-35855D01*
X18157Y-35908D01*
X18131Y-35934D01*
X18078Y-35960D01*
X17868Y-35960D01*
X17514Y-34934D02*
X17593Y-34960D01*
X17619Y-34986D01*
X17645Y-35039D01*
X17645Y-35118D01*
X17619Y-35170D01*
X17593Y-35196D01*
X17540Y-35223D01*
X17330Y-35223D01*
X17330Y-34672D01*
X17514Y-34672D01*
X17566Y-34698D01*
X17593Y-34724D01*
X17619Y-34776D01*
X17619Y-34829D01*
X17593Y-34881D01*
X17566Y-34908D01*
X17514Y-34934D01*
X17330Y-34934D01*
X17881Y-35223D02*
X17881Y-34672D01*
X18091Y-34672D01*
X18144Y-34698D01*
X18170Y-34724D01*
X18196Y-34776D01*
X18196Y-34855D01*
X18170Y-34908D01*
X18144Y-34934D01*
X18091Y-34960D01*
X17881Y-34960D01*
X17344Y-34065D02*
X17606Y-34065D01*
X17291Y-34223D02*
X17475Y-33672D01*
X17659Y-34223D01*
X17842Y-34223D02*
X17842Y-33672D01*
X18052Y-33672D01*
X18105Y-33698D01*
X18131Y-33724D01*
X18157Y-33776D01*
X18157Y-33855D01*
X18131Y-33908D01*
X18105Y-33934D01*
X18052Y-33960D01*
X17842Y-33960D01*
X17646Y-32672D02*
X17383Y-32672D01*
X17357Y-32934D01*
X17383Y-32908D01*
X17436Y-32881D01*
X17567Y-32881D01*
X17619Y-32908D01*
X17646Y-32934D01*
X17672Y-32986D01*
X17672Y-33118D01*
X17646Y-33170D01*
X17619Y-33196D01*
X17567Y-33223D01*
X17436Y-33223D01*
X17383Y-33196D01*
X17357Y-33170D01*
X17829Y-32672D02*
X18013Y-33223D01*
X18197Y-32672D01*
X15778Y-36672D02*
X16145Y-36672D01*
X15778Y-37223D01*
X16145Y-37223D01*
X16355Y-37223D02*
X16355Y-36672D01*
X16670Y-37223D01*
X16670Y-36672D01*
X16001Y-35934D02*
X16080Y-35960D01*
X16106Y-35986D01*
X16132Y-36039D01*
X16132Y-36118D01*
X16106Y-36170D01*
X16080Y-36196D01*
X16027Y-36223D01*
X15817Y-36223D01*
X15817Y-35672D01*
X16001Y-35672D01*
X16053Y-35698D01*
X16080Y-35724D01*
X16106Y-35776D01*
X16106Y-35829D01*
X16080Y-35881D01*
X16053Y-35908D01*
X16001Y-35934D01*
X15817Y-35934D01*
X16368Y-36223D02*
X16368Y-35672D01*
X16683Y-36223D01*
X16683Y-35672D01*
X15831Y-35065D02*
X16093Y-35065D01*
X15778Y-35223D02*
X15962Y-34672D01*
X16146Y-35223D01*
X16329Y-35223D02*
X16329Y-34672D01*
X16644Y-35223D01*
X16644Y-34672D01*
X25317Y-30172D02*
X25684Y-30172D01*
X25317Y-30723D01*
X25684Y-30723D01*
X25540Y-29434D02*
X25619Y-29460D01*
X25645Y-29486D01*
X25671Y-29539D01*
X25671Y-29618D01*
X25645Y-29670D01*
X25619Y-29696D01*
X25566Y-29723D01*
X25356Y-29723D01*
X25356Y-29172D01*
X25540Y-29172D01*
X25592Y-29198D01*
X25619Y-29224D01*
X25645Y-29276D01*
X25645Y-29329D01*
X25619Y-29381D01*
X25592Y-29408D01*
X25540Y-29434D01*
X25356Y-29434D01*
X25369Y-28565D02*
X25631Y-28565D01*
X25316Y-28723D02*
X25500Y-28172D01*
X25684Y-28723D01*
G54D13*
X25581Y-27198D02*
X25528Y-27172D01*
X25450Y-27172D01*
X25371Y-27198D01*
X25318Y-27250D01*
X25292Y-27303D01*
X25266Y-27408D01*
X25266Y-27486D01*
X25292Y-27591D01*
X25318Y-27644D01*
X25371Y-27696D01*
X25450Y-27723D01*
X25502Y-27723D01*
X25581Y-27696D01*
X25607Y-27670D01*
X25607Y-27486D01*
X25502Y-27486D01*
X25843Y-27723D02*
X25843Y-27172D01*
X26158Y-27723D01*
X26158Y-27172D01*
X26420Y-27723D02*
X26420Y-27172D01*
X26551Y-27172D01*
X26630Y-27198D01*
X26683Y-27250D01*
X26709Y-27303D01*
X26735Y-27408D01*
X26735Y-27486D01*
X26709Y-27591D01*
X26683Y-27644D01*
X26630Y-27696D01*
X26551Y-27723D01*
X26420Y-27723D01*
G54D12*
X44000Y-23000D02*
X44000Y-24000D01*
X49000Y-23000D02*
X49000Y-24000D01*
X47000Y-23000D02*
X46000Y-24000D01*
X46000Y-23000D02*
X47000Y-24000D01*
X45000Y-24000D02*
X46000Y-23000D01*
X45000Y-23000D02*
X46000Y-24000D01*
X45500Y-22500D02*
X45000Y-22000D01*
X47000Y-23000D02*
X46500Y-22500D01*
X47000Y-22000D02*
X46500Y-22500D01*
X45000Y-23000D02*
X45500Y-22500D01*
X45000Y-23000D02*
X45000Y-22000D01*
X46000Y-23000D02*
X46000Y-24000D01*
X42000Y-22000D02*
X50000Y-22000D01*
X42000Y-22000D02*
X42000Y-23000D01*
X50000Y-22000D02*
X50000Y-23000D01*
X47000Y-22000D02*
X47000Y-23000D01*
G54D11*
X27758Y-49824D02*
X27758Y-49024D01*
X27958Y-49595D01*
X28158Y-49024D01*
X28158Y-49824D01*
X28644Y-49405D02*
X28730Y-49443D01*
X28758Y-49481D01*
X28787Y-49557D01*
X28787Y-49671D01*
X28758Y-49748D01*
X28730Y-49786D01*
X28672Y-49824D01*
X28444Y-49824D01*
X28444Y-49024D01*
X28644Y-49024D01*
X28701Y-49062D01*
X28730Y-49100D01*
X28758Y-49176D01*
X28758Y-49252D01*
X28730Y-49329D01*
X28701Y-49367D01*
X28644Y-49405D01*
X28444Y-49405D01*
X29044Y-49405D02*
X29244Y-49405D01*
X29330Y-49824D02*
X29044Y-49824D01*
X29044Y-49024D01*
X29330Y-49024D01*
X29587Y-49824D02*
X29587Y-49024D01*
X29730Y-49024D01*
X29815Y-49062D01*
X29873Y-49138D01*
X29901Y-49214D01*
X29930Y-49367D01*
X29930Y-49481D01*
X29901Y-49633D01*
X29873Y-49710D01*
X29815Y-49786D01*
X29730Y-49824D01*
X29587Y-49824D01*
X30644Y-49290D02*
X30644Y-50090D01*
X30644Y-49329D02*
X30701Y-49290D01*
X30815Y-49290D01*
X30872Y-49329D01*
X30901Y-49367D01*
X30930Y-49443D01*
X30930Y-49671D01*
X30901Y-49748D01*
X30872Y-49786D01*
X30815Y-49824D01*
X30701Y-49824D01*
X30644Y-49786D01*
X31187Y-49824D02*
X31187Y-49290D01*
X31187Y-49443D02*
X31215Y-49367D01*
X31244Y-49329D01*
X31301Y-49290D01*
X31358Y-49290D01*
X31644Y-49824D02*
X31586Y-49786D01*
X31558Y-49748D01*
X31529Y-49671D01*
X31529Y-49443D01*
X31558Y-49367D01*
X31586Y-49329D01*
X31644Y-49290D01*
X31729Y-49290D01*
X31786Y-49329D01*
X31815Y-49367D01*
X31844Y-49443D01*
X31844Y-49671D01*
X31815Y-49748D01*
X31786Y-49786D01*
X31729Y-49824D01*
X31644Y-49824D01*
X32015Y-49290D02*
X32244Y-49290D01*
X32101Y-49024D02*
X32101Y-49710D01*
X32129Y-49786D01*
X32187Y-49824D01*
X32244Y-49824D01*
X32530Y-49824D02*
X32472Y-49786D01*
X32444Y-49748D01*
X32415Y-49671D01*
X32415Y-49443D01*
X32444Y-49367D01*
X32472Y-49329D01*
X32530Y-49290D01*
X32615Y-49290D01*
X32672Y-49329D01*
X32701Y-49367D01*
X32730Y-49443D01*
X32730Y-49671D01*
X32701Y-49748D01*
X32672Y-49786D01*
X32615Y-49824D01*
X32530Y-49824D01*
X32901Y-49290D02*
X33130Y-49290D01*
X32987Y-49024D02*
X32987Y-49710D01*
X33015Y-49786D01*
X33073Y-49824D01*
X33130Y-49824D01*
X33273Y-49290D02*
X33416Y-49824D01*
X33558Y-49290D02*
X33416Y-49824D01*
X33358Y-50014D01*
X33330Y-50052D01*
X33273Y-50090D01*
X33787Y-49290D02*
X33787Y-50090D01*
X33787Y-49329D02*
X33844Y-49290D01*
X33958Y-49290D01*
X34015Y-49329D01*
X34044Y-49367D01*
X34073Y-49443D01*
X34073Y-49671D01*
X34044Y-49748D01*
X34015Y-49786D01*
X33958Y-49824D01*
X33844Y-49824D01*
X33787Y-49786D01*
X34558Y-49786D02*
X34501Y-49824D01*
X34387Y-49824D01*
X34330Y-49786D01*
X34301Y-49710D01*
X34301Y-49405D01*
X34330Y-49329D01*
X34387Y-49290D01*
X34501Y-49290D01*
X34558Y-49329D01*
X34587Y-49405D01*
X34587Y-49481D01*
X34301Y-49557D01*
X35301Y-49824D02*
X35301Y-49024D01*
X35301Y-49329D02*
X35358Y-49290D01*
X35472Y-49290D01*
X35529Y-49329D01*
X35558Y-49367D01*
X35587Y-49443D01*
X35587Y-49671D01*
X35558Y-49748D01*
X35529Y-49786D01*
X35472Y-49824D01*
X35358Y-49824D01*
X35301Y-49786D01*
X35930Y-49824D02*
X35872Y-49786D01*
X35844Y-49748D01*
X35815Y-49671D01*
X35815Y-49443D01*
X35844Y-49367D01*
X35872Y-49329D01*
X35930Y-49290D01*
X36015Y-49290D01*
X36072Y-49329D01*
X36101Y-49367D01*
X36130Y-49443D01*
X36130Y-49671D01*
X36101Y-49748D01*
X36072Y-49786D01*
X36015Y-49824D01*
X35930Y-49824D01*
X36644Y-49824D02*
X36644Y-49405D01*
X36615Y-49329D01*
X36558Y-49290D01*
X36444Y-49290D01*
X36387Y-49329D01*
X36644Y-49786D02*
X36587Y-49824D01*
X36444Y-49824D01*
X36387Y-49786D01*
X36358Y-49710D01*
X36358Y-49633D01*
X36387Y-49557D01*
X36444Y-49519D01*
X36587Y-49519D01*
X36644Y-49481D01*
X36930Y-49824D02*
X36930Y-49290D01*
X36930Y-49443D02*
X36958Y-49367D01*
X36987Y-49329D01*
X37044Y-49290D01*
X37101Y-49290D01*
X37558Y-49824D02*
X37558Y-49024D01*
X37558Y-49786D02*
X37501Y-49824D01*
X37387Y-49824D01*
X37329Y-49786D01*
X37301Y-49748D01*
X37272Y-49671D01*
X37272Y-49443D01*
X37301Y-49367D01*
X37329Y-49329D01*
X37387Y-49290D01*
X37501Y-49290D01*
X37558Y-49329D01*
X38301Y-49824D02*
X38301Y-49290D01*
X38301Y-49443D02*
X38329Y-49367D01*
X38358Y-49329D01*
X38415Y-49290D01*
X38472Y-49290D01*
X38900Y-49786D02*
X38843Y-49824D01*
X38729Y-49824D01*
X38672Y-49786D01*
X38643Y-49710D01*
X38643Y-49405D01*
X38672Y-49329D01*
X38729Y-49290D01*
X38843Y-49290D01*
X38900Y-49329D01*
X38929Y-49405D01*
X38929Y-49481D01*
X38643Y-49557D01*
X39129Y-49290D02*
X39272Y-49824D01*
X39414Y-49290D01*
X40414Y-49824D02*
X40071Y-49824D01*
X40243Y-49824D02*
X40243Y-49024D01*
X40186Y-49138D01*
X40128Y-49214D01*
X40071Y-49252D01*
X40671Y-49748D02*
X40699Y-49786D01*
X40671Y-49824D01*
X40642Y-49786D01*
X40671Y-49748D01*
X40671Y-49824D01*
X41071Y-49024D02*
X41128Y-49024D01*
X41185Y-49062D01*
X41214Y-49100D01*
X41243Y-49176D01*
X41271Y-49329D01*
X41271Y-49519D01*
X41243Y-49671D01*
X41214Y-49748D01*
X41185Y-49786D01*
X41128Y-49824D01*
X41071Y-49824D01*
X41014Y-49786D01*
X40985Y-49748D01*
X40957Y-49671D01*
X40928Y-49519D01*
X40928Y-49329D01*
X40957Y-49176D01*
X40985Y-49100D01*
X41014Y-49062D01*
X41071Y-49024D01*
X25502Y-50988D02*
X25473Y-51026D01*
X25387Y-51064D01*
X25330Y-51064D01*
X25245Y-51026D01*
X25187Y-50950D01*
X25159Y-50873D01*
X25130Y-50721D01*
X25130Y-50607D01*
X25159Y-50454D01*
X25187Y-50378D01*
X25245Y-50302D01*
X25330Y-50264D01*
X25387Y-50264D01*
X25473Y-50302D01*
X25502Y-50340D01*
X26102Y-50988D02*
X26073Y-51026D01*
X25987Y-51064D01*
X25930Y-51064D01*
X25845Y-51026D01*
X25787Y-50950D01*
X25759Y-50873D01*
X25730Y-50721D01*
X25730Y-50607D01*
X25759Y-50454D01*
X25787Y-50378D01*
X25845Y-50302D01*
X25930Y-50264D01*
X25987Y-50264D01*
X26073Y-50302D01*
X26102Y-50340D01*
X26359Y-50759D02*
X26816Y-50759D01*
X27302Y-50645D02*
X27388Y-50683D01*
X27416Y-50721D01*
X27445Y-50797D01*
X27445Y-50911D01*
X27416Y-50988D01*
X27388Y-51026D01*
X27330Y-51064D01*
X27102Y-51064D01*
X27102Y-50264D01*
X27302Y-50264D01*
X27359Y-50302D01*
X27388Y-50340D01*
X27416Y-50416D01*
X27416Y-50492D01*
X27388Y-50569D01*
X27359Y-50607D01*
X27302Y-50645D01*
X27102Y-50645D01*
X27816Y-50683D02*
X27816Y-51064D01*
X27616Y-50264D02*
X27816Y-50683D01*
X28016Y-50264D01*
X28216Y-50759D02*
X28673Y-50759D01*
X28930Y-51026D02*
X29016Y-51064D01*
X29159Y-51064D01*
X29216Y-51026D01*
X29245Y-50988D01*
X29273Y-50911D01*
X29273Y-50835D01*
X29245Y-50759D01*
X29216Y-50721D01*
X29159Y-50683D01*
X29045Y-50645D01*
X28987Y-50607D01*
X28959Y-50569D01*
X28930Y-50492D01*
X28930Y-50416D01*
X28959Y-50340D01*
X28987Y-50302D01*
X29045Y-50264D01*
X29187Y-50264D01*
X29273Y-50302D01*
X29501Y-50835D02*
X29787Y-50835D01*
X29444Y-51064D02*
X29644Y-50264D01*
X29844Y-51064D01*
X30044Y-50759D02*
X30501Y-50759D01*
X30758Y-50340D02*
X30787Y-50302D01*
X30844Y-50264D01*
X30987Y-50264D01*
X31044Y-50302D01*
X31073Y-50340D01*
X31101Y-50416D01*
X31101Y-50492D01*
X31073Y-50607D01*
X30730Y-51064D01*
X31101Y-51064D01*
X31472Y-50264D02*
X31529Y-50264D01*
X31586Y-50302D01*
X31615Y-50340D01*
X31644Y-50416D01*
X31672Y-50569D01*
X31672Y-50759D01*
X31644Y-50911D01*
X31615Y-50988D01*
X31586Y-51026D01*
X31529Y-51064D01*
X31472Y-51064D01*
X31415Y-51026D01*
X31386Y-50988D01*
X31358Y-50911D01*
X31329Y-50759D01*
X31329Y-50569D01*
X31358Y-50416D01*
X31386Y-50340D01*
X31415Y-50302D01*
X31472Y-50264D01*
X32243Y-51064D02*
X31900Y-51064D01*
X32072Y-51064D02*
X32072Y-50264D01*
X32015Y-50378D01*
X31957Y-50454D01*
X31900Y-50492D01*
X32757Y-50530D02*
X32757Y-51064D01*
X32614Y-50226D02*
X32471Y-50797D01*
X32843Y-50797D01*
X33956Y-50226D02*
X33442Y-51254D01*
X34871Y-51026D02*
X34814Y-51064D01*
X34700Y-51064D01*
X34642Y-51026D01*
X34614Y-50988D01*
X34585Y-50911D01*
X34585Y-50683D01*
X34614Y-50607D01*
X34642Y-50569D01*
X34700Y-50530D01*
X34814Y-50530D01*
X34871Y-50569D01*
X35128Y-51064D02*
X35128Y-50530D01*
X35128Y-50683D02*
X35156Y-50607D01*
X35185Y-50569D01*
X35242Y-50530D01*
X35299Y-50530D01*
X35727Y-51026D02*
X35670Y-51064D01*
X35556Y-51064D01*
X35499Y-51026D01*
X35470Y-50950D01*
X35470Y-50645D01*
X35499Y-50569D01*
X35556Y-50530D01*
X35670Y-50530D01*
X35727Y-50569D01*
X35756Y-50645D01*
X35756Y-50721D01*
X35470Y-50797D01*
X36270Y-51064D02*
X36270Y-50645D01*
X36241Y-50569D01*
X36184Y-50530D01*
X36070Y-50530D01*
X36013Y-50569D01*
X36270Y-51026D02*
X36213Y-51064D01*
X36070Y-51064D01*
X36013Y-51026D01*
X35984Y-50950D01*
X35984Y-50873D01*
X36013Y-50797D01*
X36070Y-50759D01*
X36213Y-50759D01*
X36270Y-50721D01*
X36470Y-50530D02*
X36699Y-50530D01*
X36556Y-50264D02*
X36556Y-50950D01*
X36584Y-51026D01*
X36642Y-51064D01*
X36699Y-51064D01*
X36899Y-51064D02*
X36899Y-50530D01*
X36899Y-50264D02*
X36870Y-50302D01*
X36899Y-50340D01*
X36927Y-50302D01*
X36899Y-50264D01*
X36899Y-50340D01*
X37128Y-50530D02*
X37271Y-51064D01*
X37413Y-50530D01*
X37870Y-51026D02*
X37813Y-51064D01*
X37699Y-51064D01*
X37642Y-51026D01*
X37613Y-50950D01*
X37613Y-50645D01*
X37642Y-50569D01*
X37699Y-50530D01*
X37813Y-50530D01*
X37870Y-50569D01*
X37899Y-50645D01*
X37899Y-50721D01*
X37613Y-50797D01*
X38413Y-51026D02*
X38356Y-51064D01*
X38242Y-51064D01*
X38184Y-51026D01*
X38156Y-50988D01*
X38127Y-50911D01*
X38127Y-50683D01*
X38156Y-50607D01*
X38184Y-50569D01*
X38242Y-50530D01*
X38356Y-50530D01*
X38413Y-50569D01*
X38756Y-51064D02*
X38698Y-51026D01*
X38670Y-50988D01*
X38641Y-50911D01*
X38641Y-50683D01*
X38670Y-50607D01*
X38698Y-50569D01*
X38756Y-50530D01*
X38841Y-50530D01*
X38898Y-50569D01*
X38927Y-50607D01*
X38956Y-50683D01*
X38956Y-50911D01*
X38927Y-50988D01*
X38898Y-51026D01*
X38841Y-51064D01*
X38756Y-51064D01*
X39213Y-51064D02*
X39213Y-50530D01*
X39213Y-50607D02*
X39241Y-50569D01*
X39299Y-50530D01*
X39384Y-50530D01*
X39441Y-50569D01*
X39470Y-50645D01*
X39470Y-51064D01*
X39470Y-50645D02*
X39499Y-50569D01*
X39556Y-50530D01*
X39641Y-50530D01*
X39699Y-50569D01*
X39727Y-50645D01*
X39727Y-51064D01*
X40013Y-51064D02*
X40013Y-50530D01*
X40013Y-50607D02*
X40041Y-50569D01*
X40099Y-50530D01*
X40184Y-50530D01*
X40241Y-50569D01*
X40270Y-50645D01*
X40270Y-51064D01*
X40270Y-50645D02*
X40299Y-50569D01*
X40356Y-50530D01*
X40441Y-50530D01*
X40499Y-50569D01*
X40527Y-50645D01*
X40527Y-51064D01*
X40899Y-51064D02*
X40841Y-51026D01*
X40813Y-50988D01*
X40784Y-50911D01*
X40784Y-50683D01*
X40813Y-50607D01*
X40841Y-50569D01*
X40899Y-50530D01*
X40984Y-50530D01*
X41041Y-50569D01*
X41070Y-50607D01*
X41099Y-50683D01*
X41099Y-50911D01*
X41070Y-50988D01*
X41041Y-51026D01*
X40984Y-51064D01*
X40899Y-51064D01*
X41356Y-50530D02*
X41356Y-51064D01*
X41356Y-50607D02*
X41384Y-50569D01*
X41442Y-50530D01*
X41527Y-50530D01*
X41584Y-50569D01*
X41613Y-50645D01*
X41613Y-51064D01*
X41870Y-51026D02*
X41927Y-51064D01*
X42042Y-51064D01*
X42099Y-51026D01*
X42127Y-50950D01*
X42127Y-50911D01*
X42099Y-50835D01*
X42042Y-50797D01*
X41956Y-50797D01*
X41899Y-50759D01*
X41870Y-50683D01*
X41870Y-50645D01*
X41899Y-50569D01*
X41956Y-50530D01*
X42042Y-50530D01*
X42099Y-50569D01*
X42385Y-50988D02*
X42413Y-51026D01*
X42385Y-51064D01*
X42356Y-51026D01*
X42385Y-50988D01*
X42385Y-51064D01*
X42757Y-51064D02*
X42699Y-51026D01*
X42671Y-50988D01*
X42642Y-50911D01*
X42642Y-50683D01*
X42671Y-50607D01*
X42699Y-50569D01*
X42757Y-50530D01*
X42842Y-50530D01*
X42899Y-50569D01*
X42928Y-50607D01*
X42957Y-50683D01*
X42957Y-50911D01*
X42928Y-50988D01*
X42899Y-51026D01*
X42842Y-51064D01*
X42757Y-51064D01*
X43214Y-51064D02*
X43214Y-50530D01*
X43214Y-50683D02*
X43242Y-50607D01*
X43271Y-50569D01*
X43328Y-50530D01*
X43385Y-50530D01*
X43842Y-50530D02*
X43842Y-51178D01*
X43813Y-51254D01*
X43785Y-51292D01*
X43728Y-51330D01*
X43642Y-51330D01*
X43585Y-51292D01*
X43842Y-51026D02*
X43785Y-51064D01*
X43671Y-51064D01*
X43613Y-51026D01*
X43585Y-50988D01*
X43556Y-50911D01*
X43556Y-50683D01*
X43585Y-50607D01*
X43613Y-50569D01*
X43671Y-50530D01*
X43785Y-50530D01*
X43842Y-50569D01*
X23757Y-51885D02*
X23843Y-51923D01*
X23871Y-51961D01*
X23900Y-52037D01*
X23900Y-52151D01*
X23871Y-52228D01*
X23843Y-52266D01*
X23785Y-52304D01*
X23557Y-52304D01*
X23557Y-51504D01*
X23757Y-51504D01*
X23814Y-51542D01*
X23843Y-51580D01*
X23871Y-51656D01*
X23871Y-51732D01*
X23843Y-51809D01*
X23814Y-51847D01*
X23757Y-51885D01*
X23557Y-51885D01*
X24414Y-52304D02*
X24414Y-51885D01*
X24385Y-51809D01*
X24328Y-51770D01*
X24214Y-51770D01*
X24157Y-51809D01*
X24414Y-52266D02*
X24357Y-52304D01*
X24214Y-52304D01*
X24157Y-52266D01*
X24128Y-52190D01*
X24128Y-52113D01*
X24157Y-52037D01*
X24214Y-51999D01*
X24357Y-51999D01*
X24414Y-51961D01*
X24671Y-52266D02*
X24728Y-52304D01*
X24843Y-52304D01*
X24900Y-52266D01*
X24928Y-52190D01*
X24928Y-52151D01*
X24900Y-52075D01*
X24843Y-52037D01*
X24757Y-52037D01*
X24700Y-51999D01*
X24671Y-51923D01*
X24671Y-51885D01*
X24700Y-51809D01*
X24757Y-51770D01*
X24843Y-51770D01*
X24900Y-51809D01*
X25414Y-52266D02*
X25357Y-52304D01*
X25243Y-52304D01*
X25186Y-52266D01*
X25157Y-52190D01*
X25157Y-51885D01*
X25186Y-51809D01*
X25243Y-51770D01*
X25357Y-51770D01*
X25414Y-51809D01*
X25443Y-51885D01*
X25443Y-51961D01*
X25157Y-52037D01*
X25957Y-52304D02*
X25957Y-51504D01*
X25957Y-52266D02*
X25900Y-52304D01*
X25786Y-52304D01*
X25728Y-52266D01*
X25700Y-52228D01*
X25671Y-52151D01*
X25671Y-51923D01*
X25700Y-51847D01*
X25728Y-51809D01*
X25786Y-51770D01*
X25900Y-51770D01*
X25957Y-51809D01*
X26957Y-51770D02*
X26957Y-52304D01*
X26700Y-51770D02*
X26700Y-52190D01*
X26728Y-52266D01*
X26786Y-52304D01*
X26871Y-52304D01*
X26928Y-52266D01*
X26957Y-52228D01*
X27243Y-51770D02*
X27243Y-52570D01*
X27243Y-51809D02*
X27300Y-51770D01*
X27414Y-51770D01*
X27471Y-51809D01*
X27500Y-51847D01*
X27529Y-51923D01*
X27529Y-52151D01*
X27500Y-52228D01*
X27471Y-52266D01*
X27414Y-52304D01*
X27300Y-52304D01*
X27243Y-52266D01*
X27872Y-52304D02*
X27814Y-52266D01*
X27786Y-52228D01*
X27757Y-52151D01*
X27757Y-51923D01*
X27786Y-51847D01*
X27814Y-51809D01*
X27872Y-51770D01*
X27957Y-51770D01*
X28014Y-51809D01*
X28043Y-51847D01*
X28072Y-51923D01*
X28072Y-52151D01*
X28043Y-52228D01*
X28014Y-52266D01*
X27957Y-52304D01*
X27872Y-52304D01*
X28329Y-51770D02*
X28329Y-52304D01*
X28329Y-51847D02*
X28357Y-51809D01*
X28415Y-51770D01*
X28500Y-51770D01*
X28557Y-51809D01*
X28586Y-51885D01*
X28586Y-52304D01*
X29415Y-52304D02*
X29357Y-52266D01*
X29329Y-52190D01*
X29329Y-51504D01*
X29900Y-52304D02*
X29900Y-51885D01*
X29871Y-51809D01*
X29814Y-51770D01*
X29700Y-51770D01*
X29643Y-51809D01*
X29900Y-52266D02*
X29843Y-52304D01*
X29700Y-52304D01*
X29643Y-52266D01*
X29614Y-52190D01*
X29614Y-52113D01*
X29643Y-52037D01*
X29700Y-51999D01*
X29843Y-51999D01*
X29900Y-51961D01*
X30272Y-52304D02*
X30214Y-52266D01*
X30186Y-52228D01*
X30157Y-52151D01*
X30157Y-51923D01*
X30186Y-51847D01*
X30214Y-51809D01*
X30272Y-51770D01*
X30357Y-51770D01*
X30414Y-51809D01*
X30443Y-51847D01*
X30472Y-51923D01*
X30472Y-52151D01*
X30443Y-52228D01*
X30414Y-52266D01*
X30357Y-52304D01*
X30272Y-52304D01*
X30700Y-52266D02*
X30757Y-52304D01*
X30872Y-52304D01*
X30929Y-52266D01*
X30957Y-52190D01*
X30957Y-52151D01*
X30929Y-52075D01*
X30872Y-52037D01*
X30786Y-52037D01*
X30729Y-51999D01*
X30700Y-51923D01*
X30700Y-51885D01*
X30729Y-51809D01*
X30786Y-51770D01*
X30872Y-51770D01*
X30929Y-51809D01*
X31301Y-52304D02*
X31243Y-52266D01*
X31215Y-52190D01*
X31215Y-51504D01*
X31786Y-52304D02*
X31786Y-51885D01*
X31757Y-51809D01*
X31700Y-51770D01*
X31586Y-51770D01*
X31529Y-51809D01*
X31786Y-52266D02*
X31729Y-52304D01*
X31586Y-52304D01*
X31529Y-52266D01*
X31500Y-52190D01*
X31500Y-52113D01*
X31529Y-52037D01*
X31586Y-51999D01*
X31729Y-51999D01*
X31786Y-51961D01*
X32043Y-52266D02*
X32100Y-52304D01*
X32215Y-52304D01*
X32272Y-52266D01*
X32300Y-52190D01*
X32300Y-52151D01*
X32272Y-52075D01*
X32215Y-52037D01*
X32129Y-52037D01*
X32072Y-51999D01*
X32043Y-51923D01*
X32043Y-51885D01*
X32072Y-51809D01*
X32129Y-51770D01*
X32215Y-51770D01*
X32272Y-51809D01*
X32786Y-52266D02*
X32729Y-52304D01*
X32615Y-52304D01*
X32558Y-52266D01*
X32529Y-52190D01*
X32529Y-51885D01*
X32558Y-51809D01*
X32615Y-51770D01*
X32729Y-51770D01*
X32786Y-51809D01*
X32815Y-51885D01*
X32815Y-51961D01*
X32529Y-52037D01*
X33072Y-52304D02*
X33072Y-51770D01*
X33072Y-51923D02*
X33100Y-51847D01*
X33129Y-51809D01*
X33186Y-51770D01*
X33243Y-51770D01*
X33900Y-52304D02*
X33900Y-51504D01*
X33900Y-51809D02*
X33957Y-51770D01*
X34071Y-51770D01*
X34128Y-51809D01*
X34157Y-51847D01*
X34186Y-51923D01*
X34186Y-52151D01*
X34157Y-52228D01*
X34128Y-52266D01*
X34071Y-52304D01*
X33957Y-52304D01*
X33900Y-52266D01*
X34529Y-52304D02*
X34471Y-52266D01*
X34443Y-52228D01*
X34414Y-52151D01*
X34414Y-51923D01*
X34443Y-51847D01*
X34471Y-51809D01*
X34529Y-51770D01*
X34614Y-51770D01*
X34671Y-51809D01*
X34700Y-51847D01*
X34729Y-51923D01*
X34729Y-52151D01*
X34700Y-52228D01*
X34671Y-52266D01*
X34614Y-52304D01*
X34529Y-52304D01*
X35243Y-52304D02*
X35243Y-51885D01*
X35214Y-51809D01*
X35157Y-51770D01*
X35043Y-51770D01*
X34986Y-51809D01*
X35243Y-52266D02*
X35186Y-52304D01*
X35043Y-52304D01*
X34986Y-52266D01*
X34957Y-52190D01*
X34957Y-52113D01*
X34986Y-52037D01*
X35043Y-51999D01*
X35186Y-51999D01*
X35243Y-51961D01*
X35529Y-52304D02*
X35529Y-51770D01*
X35529Y-51923D02*
X35557Y-51847D01*
X35586Y-51809D01*
X35643Y-51770D01*
X35700Y-51770D01*
X36157Y-52304D02*
X36157Y-51504D01*
X36157Y-52266D02*
X36100Y-52304D01*
X35986Y-52304D01*
X35928Y-52266D01*
X35900Y-52228D01*
X35871Y-52151D01*
X35871Y-51923D01*
X35900Y-51847D01*
X35928Y-51809D01*
X35986Y-51770D01*
X36100Y-51770D01*
X36157Y-51809D01*
X37071Y-52609D02*
X37043Y-52570D01*
X36986Y-52456D01*
X36957Y-52380D01*
X36928Y-52266D01*
X36900Y-52075D01*
X36900Y-51923D01*
X36928Y-51732D01*
X36957Y-51618D01*
X36986Y-51542D01*
X37043Y-51428D01*
X37071Y-51390D01*
X37243Y-51770D02*
X37357Y-52304D01*
X37471Y-51923D01*
X37586Y-52304D01*
X37700Y-51770D01*
X37872Y-51770D02*
X37986Y-52304D01*
X38100Y-51923D01*
X38215Y-52304D01*
X38329Y-51770D01*
X38501Y-51770D02*
X38615Y-52304D01*
X38729Y-51923D01*
X38844Y-52304D01*
X38958Y-51770D01*
X39187Y-52228D02*
X39215Y-52266D01*
X39187Y-52304D01*
X39158Y-52266D01*
X39187Y-52228D01*
X39187Y-52304D01*
X39559Y-52304D02*
X39501Y-52266D01*
X39473Y-52190D01*
X39473Y-51504D01*
X40044Y-52304D02*
X40044Y-51885D01*
X40015Y-51809D01*
X39958Y-51770D01*
X39844Y-51770D01*
X39787Y-51809D01*
X40044Y-52266D02*
X39987Y-52304D01*
X39844Y-52304D01*
X39787Y-52266D01*
X39758Y-52190D01*
X39758Y-52113D01*
X39787Y-52037D01*
X39844Y-51999D01*
X39987Y-51999D01*
X40044Y-51961D01*
X40416Y-52304D02*
X40358Y-52266D01*
X40330Y-52228D01*
X40301Y-52151D01*
X40301Y-51923D01*
X40330Y-51847D01*
X40358Y-51809D01*
X40416Y-51770D01*
X40501Y-51770D01*
X40558Y-51809D01*
X40587Y-51847D01*
X40616Y-51923D01*
X40616Y-52151D01*
X40587Y-52228D01*
X40558Y-52266D01*
X40501Y-52304D01*
X40416Y-52304D01*
X40844Y-52266D02*
X40901Y-52304D01*
X41016Y-52304D01*
X41073Y-52266D01*
X41101Y-52190D01*
X41101Y-52151D01*
X41073Y-52075D01*
X41016Y-52037D01*
X40930Y-52037D01*
X40873Y-51999D01*
X40844Y-51923D01*
X40844Y-51885D01*
X40873Y-51809D01*
X40930Y-51770D01*
X41016Y-51770D01*
X41073Y-51809D01*
X41445Y-52304D02*
X41387Y-52266D01*
X41359Y-52190D01*
X41359Y-51504D01*
X41930Y-52304D02*
X41930Y-51885D01*
X41901Y-51809D01*
X41844Y-51770D01*
X41730Y-51770D01*
X41673Y-51809D01*
X41930Y-52266D02*
X41873Y-52304D01*
X41730Y-52304D01*
X41673Y-52266D01*
X41644Y-52190D01*
X41644Y-52113D01*
X41673Y-52037D01*
X41730Y-51999D01*
X41873Y-51999D01*
X41930Y-51961D01*
X42187Y-52266D02*
X42244Y-52304D01*
X42359Y-52304D01*
X42416Y-52266D01*
X42444Y-52190D01*
X42444Y-52151D01*
X42416Y-52075D01*
X42359Y-52037D01*
X42273Y-52037D01*
X42216Y-51999D01*
X42187Y-51923D01*
X42187Y-51885D01*
X42216Y-51809D01*
X42273Y-51770D01*
X42359Y-51770D01*
X42416Y-51809D01*
X42930Y-52266D02*
X42873Y-52304D01*
X42759Y-52304D01*
X42702Y-52266D01*
X42673Y-52190D01*
X42673Y-51885D01*
X42702Y-51809D01*
X42759Y-51770D01*
X42873Y-51770D01*
X42930Y-51809D01*
X42959Y-51885D01*
X42959Y-51961D01*
X42673Y-52037D01*
X43216Y-52304D02*
X43216Y-51770D01*
X43216Y-51923D02*
X43244Y-51847D01*
X43273Y-51809D01*
X43330Y-51770D01*
X43387Y-51770D01*
X43587Y-52228D02*
X43615Y-52266D01*
X43587Y-52304D01*
X43558Y-52266D01*
X43587Y-52228D01*
X43587Y-52304D01*
X43959Y-52304D02*
X43901Y-52266D01*
X43873Y-52228D01*
X43844Y-52151D01*
X43844Y-51923D01*
X43873Y-51847D01*
X43901Y-51809D01*
X43959Y-51770D01*
X44044Y-51770D01*
X44101Y-51809D01*
X44130Y-51847D01*
X44159Y-51923D01*
X44159Y-52151D01*
X44130Y-52228D01*
X44101Y-52266D01*
X44044Y-52304D01*
X43959Y-52304D01*
X44416Y-52304D02*
X44416Y-51770D01*
X44416Y-51923D02*
X44444Y-51847D01*
X44473Y-51809D01*
X44530Y-51770D01*
X44587Y-51770D01*
X45044Y-51770D02*
X45044Y-52418D01*
X45015Y-52494D01*
X44987Y-52532D01*
X44930Y-52570D01*
X44844Y-52570D01*
X44787Y-52532D01*
X45044Y-52266D02*
X44987Y-52304D01*
X44873Y-52304D01*
X44815Y-52266D01*
X44787Y-52228D01*
X44758Y-52151D01*
X44758Y-51923D01*
X44787Y-51847D01*
X44815Y-51809D01*
X44873Y-51770D01*
X44987Y-51770D01*
X45044Y-51809D01*
X45273Y-52609D02*
X45301Y-52570D01*
X45358Y-52456D01*
X45387Y-52380D01*
X45416Y-52266D01*
X45444Y-52075D01*
X45444Y-51923D01*
X45416Y-51732D01*
X45387Y-51618D01*
X45358Y-51542D01*
X45301Y-51428D01*
X45273Y-51390D01*
X15043Y-38562D02*
X14986Y-38524D01*
X14900Y-38524D01*
X14815Y-38562D01*
X14757Y-38638D01*
X14729Y-38714D01*
X14700Y-38867D01*
X14700Y-38981D01*
X14729Y-39133D01*
X14757Y-39210D01*
X14815Y-39286D01*
X14900Y-39324D01*
X14957Y-39324D01*
X15043Y-39286D01*
X15072Y-39248D01*
X15072Y-38981D01*
X14957Y-38981D01*
X15329Y-39324D02*
X15329Y-38524D01*
X15672Y-39324D01*
X15672Y-38524D01*
X15958Y-39324D02*
X15958Y-38524D01*
X16101Y-38524D01*
X16186Y-38562D01*
X16244Y-38638D01*
X16272Y-38714D01*
X16301Y-38867D01*
X16301Y-38981D01*
X16272Y-39133D01*
X16244Y-39210D01*
X16186Y-39286D01*
X16101Y-39324D01*
X15958Y-39324D01*
G54D14*
X19829Y-17457D02*
X19857Y-17400D01*
X19857Y-17314D01*
X19829Y-17229D01*
X19771Y-17171D01*
X19714Y-17143D01*
X19600Y-17114D01*
X19514Y-17114D01*
X19400Y-17143D01*
X19343Y-17171D01*
X19286Y-17229D01*
X19257Y-17314D01*
X19257Y-17371D01*
X19286Y-17457D01*
X19314Y-17486D01*
X19514Y-17486D01*
X19514Y-17371D01*
X19257Y-17743D02*
X19857Y-17743D01*
X19257Y-18086D01*
X19857Y-18086D01*
X19257Y-18372D02*
X19857Y-18372D01*
X19857Y-18515D01*
X19829Y-18600D01*
X19771Y-18658D01*
X19714Y-18686D01*
X19600Y-18715D01*
X19514Y-18715D01*
X19400Y-18686D01*
X19343Y-18658D01*
X19286Y-18600D01*
X19257Y-18515D01*
X19257Y-18372D01*
X27657Y-27772D02*
X27657Y-27429D01*
X27657Y-27601D02*
X28257Y-27601D01*
X28171Y-27544D01*
X28114Y-27486D01*
X28086Y-27429D01*
X32443Y-28443D02*
X32443Y-28929D01*
X32471Y-28986D01*
X32500Y-29014D01*
X32557Y-29043D01*
X32671Y-29043D01*
X32729Y-29014D01*
X32757Y-28986D01*
X32786Y-28929D01*
X32786Y-28443D01*
X33043Y-29014D02*
X33129Y-29043D01*
X33272Y-29043D01*
X33329Y-29014D01*
X33358Y-28986D01*
X33386Y-28929D01*
X33386Y-28871D01*
X33358Y-28814D01*
X33329Y-28786D01*
X33272Y-28757D01*
X33158Y-28729D01*
X33100Y-28700D01*
X33072Y-28671D01*
X33043Y-28614D01*
X33043Y-28557D01*
X33072Y-28500D01*
X33100Y-28471D01*
X33158Y-28443D01*
X33300Y-28443D01*
X33386Y-28471D01*
X33843Y-28729D02*
X33929Y-28757D01*
X33957Y-28786D01*
X33986Y-28843D01*
X33986Y-28929D01*
X33957Y-28986D01*
X33929Y-29014D01*
X33871Y-29043D01*
X33643Y-29043D01*
X33643Y-28443D01*
X33843Y-28443D01*
X33900Y-28471D01*
X33929Y-28500D01*
X33957Y-28557D01*
X33957Y-28614D01*
X33929Y-28671D01*
X33900Y-28700D01*
X33843Y-28729D01*
X33643Y-28729D01*
G54D12*
X34700Y-30400D02*
X34700Y-27600D01*
X31800Y-30400D02*
X34700Y-30400D01*
X31800Y-27500D02*
X31800Y-30400D01*
G54D14*
X35218Y-28168D02*
X35418Y-28768D01*
X35618Y-28168D01*
X35932Y-28168D02*
X36046Y-28168D01*
X36104Y-28196D01*
X36161Y-28254D01*
X36189Y-28368D01*
X36189Y-28568D01*
X36161Y-28682D01*
X36104Y-28739D01*
X36046Y-28768D01*
X35932Y-28768D01*
X35875Y-28739D01*
X35818Y-28682D01*
X35789Y-28568D01*
X35789Y-28368D01*
X35818Y-28254D01*
X35875Y-28196D01*
X35932Y-28168D01*
X36447Y-28168D02*
X36447Y-28654D01*
X36475Y-28711D01*
X36504Y-28739D01*
X36561Y-28768D01*
X36675Y-28768D01*
X36733Y-28739D01*
X36761Y-28711D01*
X36790Y-28654D01*
X36790Y-28168D01*
X36990Y-28168D02*
X37333Y-28168D01*
X37162Y-28768D02*
X37162Y-28168D01*
X30143Y-28171D02*
X30086Y-28143D01*
X30000Y-28143D01*
X29915Y-28171D01*
X29857Y-28229D01*
X29829Y-28286D01*
X29800Y-28400D01*
X29800Y-28486D01*
X29829Y-28600D01*
X29857Y-28657D01*
X29915Y-28714D01*
X30000Y-28743D01*
X30057Y-28743D01*
X30143Y-28714D01*
X30172Y-28686D01*
X30172Y-28486D01*
X30057Y-28486D01*
X30429Y-28743D02*
X30429Y-28143D01*
X30772Y-28743D01*
X30772Y-28143D01*
X31058Y-28743D02*
X31058Y-28143D01*
X31201Y-28143D01*
X31286Y-28171D01*
X31344Y-28229D01*
X31372Y-28286D01*
X31401Y-28400D01*
X31401Y-28486D01*
X31372Y-28600D01*
X31344Y-28657D01*
X31286Y-28714D01*
X31201Y-28743D01*
X31058Y-28743D01*
X21286Y-16614D02*
X21257Y-16700D01*
X21257Y-16843D01*
X21286Y-16900D01*
X21314Y-16929D01*
X21371Y-16957D01*
X21429Y-16957D01*
X21486Y-16929D01*
X21514Y-16900D01*
X21543Y-16843D01*
X21571Y-16729D01*
X21600Y-16671D01*
X21629Y-16643D01*
X21686Y-16614D01*
X21743Y-16614D01*
X21800Y-16643D01*
X21829Y-16671D01*
X21857Y-16729D01*
X21857Y-16871D01*
X21829Y-16957D01*
X21257Y-17214D02*
X21857Y-17214D01*
X21857Y-17357D01*
X21829Y-17442D01*
X21771Y-17500D01*
X21714Y-17528D01*
X21600Y-17557D01*
X21514Y-17557D01*
X21400Y-17528D01*
X21343Y-17500D01*
X21286Y-17442D01*
X21257Y-17357D01*
X21257Y-17214D01*
X21429Y-17785D02*
X21429Y-18071D01*
X21257Y-17728D02*
X21857Y-17928D01*
X21257Y-18128D01*
X21886Y-18756D02*
X21114Y-18242D01*
X21857Y-18871D02*
X21857Y-19214D01*
X21257Y-19043D02*
X21857Y-19043D01*
X21857Y-19357D02*
X21257Y-19757D01*
X21857Y-19757D02*
X21257Y-19357D01*
X21257Y-20299D02*
X21257Y-19956D01*
X21257Y-20128D02*
X21857Y-20128D01*
X21771Y-20071D01*
X21714Y-20013D01*
X21686Y-19956D01*
X20286Y-16614D02*
X20257Y-16700D01*
X20257Y-16843D01*
X20286Y-16900D01*
X20314Y-16929D01*
X20371Y-16957D01*
X20429Y-16957D01*
X20486Y-16929D01*
X20514Y-16900D01*
X20543Y-16843D01*
X20571Y-16729D01*
X20600Y-16671D01*
X20629Y-16643D01*
X20686Y-16614D01*
X20743Y-16614D01*
X20800Y-16643D01*
X20829Y-16671D01*
X20857Y-16729D01*
X20857Y-16871D01*
X20829Y-16957D01*
X20314Y-17557D02*
X20286Y-17528D01*
X20257Y-17442D01*
X20257Y-17385D01*
X20286Y-17300D01*
X20343Y-17242D01*
X20400Y-17214D01*
X20514Y-17185D01*
X20600Y-17185D01*
X20714Y-17214D01*
X20771Y-17242D01*
X20829Y-17300D01*
X20857Y-17385D01*
X20857Y-17442D01*
X20829Y-17528D01*
X20800Y-17557D01*
X20257Y-18100D02*
X20257Y-17814D01*
X20857Y-17814D01*
X20886Y-18728D02*
X20114Y-18214D01*
X20257Y-19272D02*
X20543Y-19072D01*
X20257Y-18929D02*
X20857Y-18929D01*
X20857Y-19157D01*
X20829Y-19215D01*
X20800Y-19243D01*
X20743Y-19272D01*
X20657Y-19272D01*
X20600Y-19243D01*
X20571Y-19215D01*
X20543Y-19157D01*
X20543Y-18929D01*
X20857Y-19472D02*
X20257Y-19872D01*
X20857Y-19872D02*
X20257Y-19472D01*
X20257Y-20414D02*
X20257Y-20071D01*
X20257Y-20243D02*
X20857Y-20243D01*
X20771Y-20186D01*
X20714Y-20128D01*
X20686Y-20071D01*
X22486Y-17143D02*
X22486Y-17600D01*
X22257Y-17371D02*
X22714Y-17371D01*
X22857Y-18172D02*
X22857Y-17886D01*
X22571Y-17857D01*
X22600Y-17886D01*
X22629Y-17943D01*
X22629Y-18086D01*
X22600Y-18143D01*
X22571Y-18172D01*
X22514Y-18200D01*
X22371Y-18200D01*
X22314Y-18172D01*
X22286Y-18143D01*
X22257Y-18086D01*
X22257Y-17943D01*
X22286Y-17886D01*
X22314Y-17857D01*
X22857Y-18371D02*
X22257Y-18571D01*
X22857Y-18771D01*
X32429Y-31643D02*
X32429Y-31043D01*
X32629Y-31471D01*
X32829Y-31043D01*
X32829Y-31643D01*
X33315Y-31329D02*
X33401Y-31357D01*
X33429Y-31386D01*
X33458Y-31443D01*
X33458Y-31529D01*
X33429Y-31586D01*
X33401Y-31614D01*
X33343Y-31643D01*
X33115Y-31643D01*
X33115Y-31043D01*
X33315Y-31043D01*
X33372Y-31071D01*
X33401Y-31100D01*
X33429Y-31157D01*
X33429Y-31214D01*
X33401Y-31271D01*
X33372Y-31300D01*
X33315Y-31329D01*
X33115Y-31329D01*
X33715Y-31329D02*
X33915Y-31329D01*
X34001Y-31643D02*
X33715Y-31643D01*
X33715Y-31043D01*
X34001Y-31043D01*
X34258Y-31643D02*
X34258Y-31043D01*
X34401Y-31043D01*
X34486Y-31071D01*
X34544Y-31129D01*
X34572Y-31186D01*
X34601Y-31300D01*
X34601Y-31386D01*
X34572Y-31500D01*
X34544Y-31557D01*
X34486Y-31614D01*
X34401Y-31643D01*
X34258Y-31643D01*
G54D10*
X49000Y-17572D02*
X49137Y-17566D01*
X49273Y-17548D01*
X49407Y-17518D01*
X49538Y-17477D01*
X49665Y-17424D01*
X49787Y-17360D01*
X49903Y-17287D01*
X50012Y-17203D01*
X50113Y-17110D01*
X50206Y-17009D01*
X50290Y-16900D01*
X50363Y-16784D01*
X50427Y-16662D01*
X50480Y-16535D01*
X50521Y-16404D01*
X50551Y-16270D01*
X50569Y-16134D01*
X50575Y-15997D01*
X50575Y-16000D02*
X50569Y-15863D01*
X50551Y-15727D01*
X50521Y-15593D01*
X50480Y-15462D01*
X50427Y-15335D01*
X50363Y-15213D01*
X50290Y-15097D01*
X50206Y-14988D01*
X50113Y-14887D01*
X50012Y-14794D01*
X49903Y-14710D01*
X49787Y-14637D01*
X49665Y-14573D01*
X49538Y-14520D01*
X49407Y-14479D01*
X49273Y-14449D01*
X49137Y-14431D01*
X49000Y-14425D01*
X47428Y-15998D02*
X47434Y-16135D01*
X47452Y-16271D01*
X47482Y-16405D01*
X47523Y-16536D01*
X47576Y-16663D01*
X47640Y-16785D01*
X47713Y-16901D01*
X47797Y-17010D01*
X47890Y-17111D01*
X47991Y-17204D01*
X48100Y-17288D01*
X48216Y-17361D01*
X48338Y-17425D01*
X48465Y-17478D01*
X48596Y-17519D01*
X48730Y-17549D01*
X48866Y-17567D01*
X49003Y-17573D01*
X49003Y-14425D02*
X48866Y-14431D01*
X48730Y-14449D01*
X48596Y-14479D01*
X48465Y-14520D01*
X48338Y-14573D01*
X48216Y-14637D01*
X48100Y-14710D01*
X47991Y-14794D01*
X47890Y-14887D01*
X47797Y-14988D01*
X47713Y-15097D01*
X47640Y-15213D01*
X47576Y-15335D01*
X47523Y-15462D01*
X47482Y-15593D01*
X47452Y-15727D01*
X47434Y-15863D01*
X47428Y-16000D01*
G54D12*
X28500Y-48500D02*
X38500Y-48500D01*
X28500Y-27500D02*
X38500Y-27500D01*
X38500Y-27500D02*
X38500Y-48500D01*
X28500Y-48500D02*
X28500Y-27500D01*
G54D15*
X36250Y-13750D02*
X42650Y-13750D01*
X42650Y-21250D02*
X42650Y-12600D01*
X36250Y-21250D02*
X36250Y-12600D01*
X36250Y-21250D02*
X42650Y-21250D01*
X42650Y-12600D02*
X36250Y-12600D01*
G54D16*
X33735Y-18105D02*
X33735Y-12600D01*
X28565Y-18105D02*
X28565Y-12600D01*
X33700Y-12600D02*
X28600Y-12600D01*
X33710Y-18110D02*
X28590Y-18110D01*
X29150Y-15650D02*
X29400Y-13150D01*
X29400Y-13150D02*
X30650Y-13150D01*
X30650Y-13150D02*
X30900Y-15650D01*
X33150Y-15650D02*
X32900Y-13150D01*
X32900Y-13150D02*
X31650Y-13150D01*
X31650Y-13150D02*
X31400Y-15650D01*
G54D14*
X21500Y-23500D02*
X21500Y-23100D01*
X21500Y-23100D02*
X21100Y-23100D01*
X21100Y-23100D02*
X21100Y-19900D01*
X21100Y-19900D02*
X21900Y-19900D01*
X21900Y-19900D02*
X21900Y-23100D01*
X21900Y-23100D02*
X21500Y-23100D01*
X21500Y-19500D02*
X21500Y-19900D01*
X18000Y-41000D02*
X18400Y-41000D01*
X18400Y-41000D02*
X18400Y-40600D01*
X18400Y-40600D02*
X21600Y-40600D01*
X21600Y-40600D02*
X21600Y-41400D01*
X21600Y-41400D02*
X18400Y-41400D01*
X18400Y-41400D02*
X18400Y-41000D01*
X22000Y-41000D02*
X21600Y-41000D01*
X20500Y-23500D02*
X20500Y-23100D01*
X20500Y-23100D02*
X20100Y-23100D01*
X20100Y-23100D02*
X20100Y-19900D01*
X20100Y-19900D02*
X20900Y-19900D01*
X20900Y-19900D02*
X20900Y-23100D01*
X20900Y-23100D02*
X20500Y-23100D01*
X20500Y-19500D02*
X20500Y-19900D01*
G54D10*
X50575Y-51000D02*
X50545Y-51305D01*
X50456Y-51600D01*
X50311Y-51871D01*
X50117Y-52109D01*
X49880Y-52305D01*
X49610Y-52451D01*
X49316Y-52542D01*
X49010Y-52574D01*
X48705Y-52547D01*
X48410Y-52460D01*
X48138Y-52317D01*
X47899Y-52125D01*
X47701Y-51889D01*
X47553Y-51620D01*
X47460Y-51327D01*
X47426Y-51021D01*
X47451Y-50716D01*
X47536Y-50421D01*
X47677Y-50147D01*
X47868Y-49906D01*
X48102Y-49707D01*
X48370Y-49557D01*
X48662Y-49462D01*
X48968Y-49426D01*
X49273Y-49449D01*
X49569Y-49532D01*
X49843Y-49671D01*
X50086Y-49860D01*
X50287Y-50093D01*
X50438Y-50360D01*
X50535Y-50652D01*
X50574Y-50957D01*
X50575Y-51000D01*
X15575Y-51000D02*
X15545Y-51305D01*
X15456Y-51600D01*
X15311Y-51871D01*
X15117Y-52109D01*
X14880Y-52305D01*
X14610Y-52451D01*
X14316Y-52542D01*
X14010Y-52574D01*
X13705Y-52547D01*
X13410Y-52460D01*
X13138Y-52317D01*
X12899Y-52125D01*
X12701Y-51889D01*
X12553Y-51620D01*
X12460Y-51327D01*
X12426Y-51021D01*
X12451Y-50716D01*
X12536Y-50421D01*
X12677Y-50147D01*
X12868Y-49906D01*
X13102Y-49707D01*
X13370Y-49557D01*
X13662Y-49462D01*
X13968Y-49426D01*
X14273Y-49449D01*
X14569Y-49532D01*
X14843Y-49671D01*
X15086Y-49860D01*
X15287Y-50093D01*
X15438Y-50360D01*
X15535Y-50652D01*
X15574Y-50957D01*
X15575Y-51000D01*
X15575Y-16000D02*
X15545Y-16305D01*
X15456Y-16600D01*
X15311Y-16871D01*
X15117Y-17109D01*
X14880Y-17305D01*
X14610Y-17451D01*
X14316Y-17542D01*
X14010Y-17574D01*
X13705Y-17547D01*
X13410Y-17460D01*
X13138Y-17317D01*
X12899Y-17125D01*
X12701Y-16889D01*
X12553Y-16620D01*
X12460Y-16327D01*
X12426Y-16021D01*
X12451Y-15716D01*
X12536Y-15421D01*
X12677Y-15147D01*
X12868Y-14906D01*
X13102Y-14707D01*
X13370Y-14557D01*
X13662Y-14462D01*
X13968Y-14426D01*
X14273Y-14449D01*
X14569Y-14532D01*
X14843Y-14671D01*
X15086Y-14860D01*
X15287Y-15093D01*
X15438Y-15360D01*
X15535Y-15652D01*
X15574Y-15957D01*
X15575Y-16000D01*
G54D11*
X43000Y-42000D02*
X43000Y-34000D01*
X43000Y-34000D02*
X44000Y-34000D01*
X44000Y-34000D02*
X44000Y-42000D01*
X44000Y-42000D02*
X43000Y-42000D01*
X44000Y-41000D02*
X43000Y-41000D01*
X44000Y-42000D02*
X44000Y-34000D01*
X44000Y-34000D02*
X45000Y-34000D01*
X45000Y-34000D02*
X45000Y-42000D01*
X45000Y-42000D02*
X44000Y-42000D01*
X45000Y-41000D02*
X44000Y-41000D01*
X47000Y-42000D02*
X47000Y-34000D01*
X47000Y-34000D02*
X48000Y-34000D01*
X48000Y-34000D02*
X48000Y-42000D01*
X48000Y-42000D02*
X47000Y-42000D01*
X48000Y-41000D02*
X47000Y-41000D01*
X48000Y-42000D02*
X48000Y-34000D01*
X48000Y-34000D02*
X49000Y-34000D01*
X49000Y-34000D02*
X49000Y-42000D01*
X49000Y-42000D02*
X48000Y-42000D01*
X49000Y-41000D02*
X48000Y-41000D01*
X13500Y-37500D02*
X13500Y-32500D01*
X13500Y-32500D02*
X15500Y-32500D01*
X15500Y-32500D02*
X15500Y-37500D01*
X15500Y-37500D02*
X13500Y-37500D01*
X45000Y-48000D02*
X45000Y-43000D01*
X45000Y-43000D02*
X47000Y-43000D01*
X47000Y-43000D02*
X47000Y-48000D01*
X47000Y-48000D02*
X45000Y-48000D01*
X17000Y-48000D02*
X17000Y-43000D01*
X17000Y-43000D02*
X19000Y-43000D01*
X19000Y-43000D02*
X19000Y-48000D01*
X19000Y-48000D02*
X17000Y-48000D01*
X48000Y-48000D02*
X49000Y-48000D01*
X49000Y-43000D02*
X48000Y-43000D01*
X48000Y-48000D02*
X48000Y-43000D01*
X49000Y-43000D02*
X49000Y-48000D01*
X20000Y-48000D02*
X21000Y-48000D01*
X21000Y-43000D02*
X20000Y-43000D01*
X20000Y-48000D02*
X20000Y-43000D01*
X21000Y-43000D02*
X21000Y-48000D01*
X43000Y-48000D02*
X44000Y-48000D01*
X44000Y-43000D02*
X43000Y-43000D01*
X43000Y-48000D02*
X43000Y-43000D01*
X44000Y-43000D02*
X44000Y-48000D01*
X15000Y-48000D02*
X16000Y-48000D01*
X16000Y-43000D02*
X15000Y-43000D01*
X15000Y-48000D02*
X15000Y-43000D01*
X16000Y-43000D02*
X16000Y-48000D01*
X43500Y-21980D02*
X43500Y-20000D01*
X43500Y-20000D02*
X44500Y-20000D01*
X44500Y-20000D02*
X44500Y-22000D01*
X44500Y-22000D02*
X43500Y-22000D01*
X43750Y-22000D02*
X43500Y-21750D01*
X24000Y-20020D02*
X24000Y-22000D01*
X24000Y-22000D02*
X23000Y-22000D01*
X23000Y-22000D02*
X23000Y-20000D01*
X23000Y-20000D02*
X24000Y-20000D01*
X23750Y-20000D02*
X24000Y-20250D01*
G54D14*
X23000Y-16500D02*
X19000Y-16500D01*
X23000Y-15500D02*
X19000Y-15500D01*
X19000Y-15500D02*
X19000Y-16500D01*
X23000Y-16500D02*
X23000Y-15500D01*
G54D12*
X20500Y-35500D02*
X20500Y-35500D01*
X20500Y-35500D02*
X20500Y-35000D01*
X20500Y-35000D02*
X21500Y-35000D01*
X21500Y-35000D02*
X21500Y-35500D01*
X20000Y-35500D02*
X20000Y-26500D01*
X20000Y-26500D02*
X22000Y-26500D01*
X22000Y-26500D02*
X22000Y-35500D01*
X22000Y-35500D02*
X20000Y-35500D01*
G54D17*
X25850Y-38000D02*
X25819Y-38310D01*
X25729Y-38609D01*
X25582Y-38885D01*
X25385Y-39127D01*
X25144Y-39326D01*
X24870Y-39474D01*
X24571Y-39567D01*
X24261Y-39599D01*
X23951Y-39571D01*
X23651Y-39483D01*
X23374Y-39338D01*
X23131Y-39143D01*
X22930Y-38903D01*
X22780Y-38630D01*
X22685Y-38332D01*
X22651Y-38022D01*
X22677Y-37712D01*
X22763Y-37412D01*
X22906Y-37134D01*
X23100Y-36889D01*
X23337Y-36687D01*
X23610Y-36534D01*
X23907Y-36438D01*
X24217Y-36401D01*
X24527Y-36425D01*
X24828Y-36509D01*
X25107Y-36650D01*
X25353Y-36842D01*
X25557Y-37078D01*
X25711Y-37350D01*
X25810Y-37646D01*
X25849Y-37956D01*
X25850Y-38000D01*
G54D11*
X21980Y-37500D02*
X20000Y-37500D01*
X20000Y-37500D02*
X20000Y-36500D01*
X20000Y-36500D02*
X22000Y-36500D01*
X22000Y-36500D02*
X22000Y-37500D01*
X22000Y-37250D02*
X21750Y-37500D01*
X34500Y-20020D02*
X34500Y-22000D01*
X34500Y-22000D02*
X33500Y-22000D01*
X33500Y-22000D02*
X33500Y-20000D01*
X33500Y-20000D02*
X34500Y-20000D01*
X34250Y-20000D02*
X34500Y-20250D01*
X42000Y-24000D02*
X50000Y-24000D01*
X50000Y-24000D02*
X50000Y-25000D01*
X50000Y-25000D02*
X42000Y-25000D01*
X42000Y-25000D02*
X42000Y-24000D01*
X43000Y-25000D02*
X43000Y-24000D01*
X42000Y-25000D02*
X50000Y-25000D01*
X50000Y-25000D02*
X50000Y-26000D01*
X50000Y-26000D02*
X42000Y-26000D01*
X42000Y-26000D02*
X42000Y-25000D01*
X43000Y-26000D02*
X43000Y-25000D01*
X42000Y-26000D02*
X50000Y-26000D01*
X50000Y-26000D02*
X50000Y-27000D01*
X50000Y-27000D02*
X42000Y-27000D01*
X42000Y-27000D02*
X42000Y-26000D01*
X43000Y-27000D02*
X43000Y-26000D01*
X42000Y-27000D02*
X50000Y-27000D01*
X50000Y-27000D02*
X50000Y-28000D01*
X50000Y-28000D02*
X42000Y-28000D01*
X42000Y-28000D02*
X42000Y-27000D01*
X43000Y-28000D02*
X43000Y-27000D01*
X42000Y-28000D02*
X50000Y-28000D01*
X50000Y-28000D02*
X50000Y-29000D01*
X50000Y-29000D02*
X42000Y-29000D01*
X42000Y-29000D02*
X42000Y-28000D01*
X43000Y-29000D02*
X43000Y-28000D01*
X42000Y-29000D02*
X50000Y-29000D01*
X50000Y-29000D02*
X50000Y-30000D01*
X50000Y-30000D02*
X42000Y-30000D01*
X42000Y-30000D02*
X42000Y-29000D01*
X43000Y-30000D02*
X43000Y-29000D01*
X42000Y-31000D02*
X50000Y-31000D01*
X50000Y-31000D02*
X50000Y-32000D01*
X50000Y-32000D02*
X42000Y-32000D01*
X42000Y-32000D02*
X42000Y-31000D01*
X43000Y-32000D02*
X43000Y-31000D01*
X42000Y-30000D02*
X50000Y-30000D01*
X50000Y-30000D02*
X50000Y-31000D01*
X50000Y-31000D02*
X42000Y-31000D01*
X42000Y-31000D02*
X42000Y-30000D01*
X43000Y-31000D02*
X43000Y-30000D01*
X42000Y-42000D02*
X42000Y-34000D01*
X42000Y-34000D02*
X43000Y-34000D01*
X43000Y-34000D02*
X43000Y-42000D01*
X43000Y-42000D02*
X42000Y-42000D01*
X43000Y-41000D02*
X42000Y-41000D01*
X49000Y-42000D02*
X49000Y-34000D01*
X49000Y-34000D02*
X50000Y-34000D01*
X50000Y-34000D02*
X50000Y-42000D01*
X50000Y-42000D02*
X49000Y-42000D01*
X50000Y-41000D02*
X49000Y-41000D01*
X42000Y-24000D02*
X42000Y-23000D01*
X42000Y-23000D02*
X45000Y-23000D01*
X45000Y-23000D02*
X45000Y-24000D01*
X45000Y-24000D02*
X42000Y-24000D01*
X43000Y-23000D02*
X43000Y-24000D01*
X47000Y-24000D02*
X47000Y-23000D01*
X47000Y-23000D02*
X50000Y-23000D01*
X50000Y-23000D02*
X50000Y-24000D01*
X50000Y-24000D02*
X47000Y-24000D01*
X48000Y-23000D02*
X48000Y-24000D01*
X45000Y-24000D02*
X45000Y-23000D01*
X45000Y-23000D02*
X47000Y-23000D01*
X47000Y-23000D02*
X47000Y-24000D01*
X47000Y-24000D02*
X45000Y-24000D01*
X42000Y-32000D02*
X50000Y-32000D01*
X50000Y-32000D02*
X50000Y-33000D01*
X50000Y-33000D02*
X42000Y-33000D01*
X42000Y-33000D02*
X42000Y-32000D01*
X43000Y-33000D02*
X43000Y-32000D01*
X42000Y-33000D02*
X50000Y-33000D01*
X50000Y-33000D02*
X50000Y-34000D01*
X50000Y-34000D02*
X42000Y-34000D01*
X42000Y-34000D02*
X42000Y-33000D01*
X43000Y-34000D02*
X43000Y-33000D01*
X18000Y-40000D02*
X18400Y-40000D01*
X18400Y-40000D02*
X18400Y-39600D01*
X18400Y-39600D02*
X21600Y-39600D01*
X21600Y-39600D02*
X21600Y-40400D01*
X21600Y-40400D02*
X18400Y-40400D01*
X18400Y-40400D02*
X18400Y-40000D01*
X18400Y-39800D02*
X18600Y-39600D01*
X22000Y-40000D02*
X21600Y-40000D01*
G54D10*
X13500Y-38500D02*
X14500Y-38500D01*
X14500Y-38500D02*
X14500Y-41500D01*
X14500Y-41500D02*
X13500Y-41500D01*
X13500Y-41500D02*
X13500Y-38500D01*
X14500Y-39500D02*
X13500Y-39500D01*
G54D14*
X25000Y-27000D02*
X25000Y-31000D01*
X24000Y-27000D02*
X24000Y-31000D01*
X24000Y-31000D02*
X25000Y-31000D01*
X25000Y-27000D02*
X24000Y-27000D01*
G54D11*
X15750Y-19100D02*
X13150Y-19100D01*
X13150Y-19100D02*
X13150Y-30900D01*
X13150Y-30900D02*
X15750Y-30900D01*
X15750Y-30900D02*
X15750Y-19100D01*
X45000Y-42000D02*
X45000Y-34000D01*
X45000Y-34000D02*
X46000Y-34000D01*
X46000Y-34000D02*
X46000Y-42000D01*
X46000Y-42000D02*
X45000Y-42000D01*
X46000Y-41000D02*
X45000Y-41000D01*
X46000Y-42000D02*
X46000Y-34000D01*
X46000Y-34000D02*
X47000Y-34000D01*
X47000Y-34000D02*
X47000Y-42000D01*
X47000Y-42000D02*
X46000Y-42000D01*
X47000Y-41000D02*
X46000Y-41000D01*
G54D10*
X28677Y-26862D02*
X28677Y-27148D01*
X28657Y-27205D01*
X28619Y-27243D01*
X28562Y-27262D01*
X28524Y-27262D01*
X29077Y-27262D02*
X28848Y-27262D01*
X28962Y-27262D02*
X28962Y-26862D01*
X28924Y-26919D01*
X28886Y-26957D01*
X28848Y-26976D01*
X29458Y-27262D02*
X29229Y-27262D01*
X29343Y-27262D02*
X29343Y-26862D01*
X29305Y-26919D01*
X29267Y-26957D01*
X29229Y-26976D01*
X36467Y-21462D02*
X36467Y-21748D01*
X36447Y-21805D01*
X36409Y-21843D01*
X36352Y-21862D01*
X36314Y-21862D01*
X36829Y-21595D02*
X36829Y-21862D01*
X36733Y-21443D02*
X36638Y-21729D01*
X36886Y-21729D01*
X28717Y-18312D02*
X28717Y-18598D01*
X28697Y-18655D01*
X28659Y-18693D01*
X28602Y-18712D01*
X28564Y-18712D01*
X29117Y-18712D02*
X28888Y-18712D01*
X29002Y-18712D02*
X29002Y-18312D01*
X28964Y-18369D01*
X28926Y-18407D01*
X28888Y-18426D01*
X21662Y-18666D02*
X21471Y-18800D01*
X21662Y-18895D02*
X21262Y-18895D01*
X21262Y-18742D01*
X21281Y-18704D01*
X21300Y-18685D01*
X21338Y-18666D01*
X21395Y-18666D01*
X21433Y-18685D01*
X21452Y-18704D01*
X21471Y-18742D01*
X21471Y-18895D01*
X21262Y-18533D02*
X21262Y-18266D01*
X21662Y-18438D01*
X22050Y-23005D02*
X22031Y-22986D01*
X22012Y-22948D01*
X22012Y-22852D01*
X22031Y-22814D01*
X22050Y-22795D01*
X22088Y-22776D01*
X22126Y-22776D01*
X22183Y-22795D01*
X22412Y-23024D01*
X22412Y-22776D01*
X22412Y-22605D02*
X22012Y-22605D01*
X22412Y-22376D02*
X22183Y-22548D01*
X22012Y-22376D02*
X22240Y-22605D01*
X22050Y-22224D02*
X22031Y-22205D01*
X22012Y-22167D01*
X22012Y-22071D01*
X22031Y-22033D01*
X22050Y-22014D01*
X22088Y-21995D01*
X22126Y-21995D01*
X22183Y-22014D01*
X22412Y-22243D01*
X22412Y-21995D01*
X22834Y-41162D02*
X22700Y-40971D01*
X22605Y-41162D02*
X22605Y-40762D01*
X22758Y-40762D01*
X22796Y-40781D01*
X22815Y-40800D01*
X22834Y-40838D01*
X22834Y-40895D01*
X22815Y-40933D01*
X22796Y-40952D01*
X22758Y-40971D01*
X22605Y-40971D01*
X23215Y-41162D02*
X22986Y-41162D01*
X23100Y-41162D02*
X23100Y-40762D01*
X23062Y-40819D01*
X23024Y-40857D01*
X22986Y-40876D01*
X19534Y-41162D02*
X19305Y-41162D01*
X19419Y-41162D02*
X19419Y-40762D01*
X19381Y-40819D01*
X19343Y-40857D01*
X19305Y-40876D01*
X19781Y-40762D02*
X19820Y-40762D01*
X19858Y-40781D01*
X19877Y-40800D01*
X19896Y-40838D01*
X19915Y-40914D01*
X19915Y-41010D01*
X19896Y-41086D01*
X19877Y-41124D01*
X19858Y-41143D01*
X19820Y-41162D01*
X19781Y-41162D01*
X19743Y-41143D01*
X19724Y-41124D01*
X19705Y-41086D01*
X19686Y-41010D01*
X19686Y-40914D01*
X19705Y-40838D01*
X19724Y-40800D01*
X19743Y-40781D01*
X19781Y-40762D01*
X20162Y-40762D02*
X20201Y-40762D01*
X20239Y-40781D01*
X20258Y-40800D01*
X20277Y-40838D01*
X20296Y-40914D01*
X20296Y-41010D01*
X20277Y-41086D01*
X20258Y-41124D01*
X20239Y-41143D01*
X20201Y-41162D01*
X20162Y-41162D01*
X20124Y-41143D01*
X20105Y-41124D01*
X20086Y-41086D01*
X20067Y-41010D01*
X20067Y-40914D01*
X20086Y-40838D01*
X20105Y-40800D01*
X20124Y-40781D01*
X20162Y-40762D01*
X20696Y-41162D02*
X20562Y-40971D01*
X20467Y-41162D02*
X20467Y-40762D01*
X20620Y-40762D01*
X20658Y-40781D01*
X20677Y-40800D01*
X20696Y-40838D01*
X20696Y-40895D01*
X20677Y-40933D01*
X20658Y-40952D01*
X20620Y-40971D01*
X20467Y-40971D01*
X20662Y-18666D02*
X20471Y-18800D01*
X20662Y-18895D02*
X20262Y-18895D01*
X20262Y-18742D01*
X20281Y-18704D01*
X20300Y-18685D01*
X20338Y-18666D01*
X20395Y-18666D01*
X20433Y-18685D01*
X20452Y-18704D01*
X20471Y-18742D01*
X20471Y-18895D01*
X20433Y-18438D02*
X20414Y-18476D01*
X20395Y-18495D01*
X20357Y-18514D01*
X20338Y-18514D01*
X20300Y-18495D01*
X20281Y-18476D01*
X20262Y-18438D01*
X20262Y-18361D01*
X20281Y-18323D01*
X20300Y-18304D01*
X20338Y-18285D01*
X20357Y-18285D01*
X20395Y-18304D01*
X20414Y-18323D01*
X20433Y-18361D01*
X20433Y-18438D01*
X20452Y-18476D01*
X20471Y-18495D01*
X20510Y-18514D01*
X20586Y-18514D01*
X20624Y-18495D01*
X20643Y-18476D01*
X20662Y-18438D01*
X20662Y-18361D01*
X20643Y-18323D01*
X20624Y-18304D01*
X20586Y-18285D01*
X20510Y-18285D01*
X20471Y-18304D01*
X20452Y-18323D01*
X20433Y-18361D01*
X19550Y-23005D02*
X19531Y-22986D01*
X19512Y-22948D01*
X19512Y-22852D01*
X19531Y-22814D01*
X19550Y-22795D01*
X19588Y-22776D01*
X19626Y-22776D01*
X19683Y-22795D01*
X19912Y-23024D01*
X19912Y-22776D01*
X19912Y-22605D02*
X19512Y-22605D01*
X19912Y-22376D02*
X19683Y-22548D01*
X19512Y-22376D02*
X19740Y-22605D01*
X19550Y-22224D02*
X19531Y-22205D01*
X19512Y-22167D01*
X19512Y-22071D01*
X19531Y-22033D01*
X19550Y-22014D01*
X19588Y-21995D01*
X19626Y-21995D01*
X19683Y-22014D01*
X19912Y-22243D01*
X19912Y-21995D01*
G54D17*
X12952Y-36286D02*
X12952Y-36152D01*
X13162Y-36095D02*
X13162Y-36286D01*
X12762Y-36286D01*
X12762Y-36095D01*
X13162Y-35924D02*
X12762Y-35924D01*
X13162Y-35695D01*
X12762Y-35695D01*
X13124Y-35276D02*
X13143Y-35295D01*
X13162Y-35352D01*
X13162Y-35390D01*
X13143Y-35448D01*
X13105Y-35486D01*
X13067Y-35505D01*
X12990Y-35524D01*
X12933Y-35524D01*
X12857Y-35505D01*
X12819Y-35486D01*
X12781Y-35448D01*
X12762Y-35390D01*
X12762Y-35352D01*
X12781Y-35295D01*
X12800Y-35276D01*
X12762Y-35029D02*
X12762Y-34952D01*
X12781Y-34914D01*
X12819Y-34876D01*
X12895Y-34857D01*
X13029Y-34857D01*
X13105Y-34876D01*
X13143Y-34914D01*
X13162Y-34952D01*
X13162Y-35029D01*
X13143Y-35067D01*
X13105Y-35105D01*
X13029Y-35124D01*
X12895Y-35124D01*
X12819Y-35105D01*
X12781Y-35067D01*
X12762Y-35029D01*
X13162Y-34686D02*
X12762Y-34686D01*
X12762Y-34591D01*
X12781Y-34533D01*
X12819Y-34495D01*
X12857Y-34476D01*
X12933Y-34457D01*
X12990Y-34457D01*
X13067Y-34476D01*
X13105Y-34495D01*
X13143Y-34533D01*
X13162Y-34591D01*
X13162Y-34686D01*
X12952Y-34286D02*
X12952Y-34152D01*
X13162Y-34095D02*
X13162Y-34286D01*
X12762Y-34286D01*
X12762Y-34095D01*
X13162Y-33695D02*
X12971Y-33829D01*
X13162Y-33924D02*
X12762Y-33924D01*
X12762Y-33771D01*
X12781Y-33733D01*
X12800Y-33714D01*
X12838Y-33695D01*
X12895Y-33695D01*
X12933Y-33714D01*
X12952Y-33733D01*
X12971Y-33771D01*
X12971Y-33924D01*
X43934Y-19874D02*
X43915Y-19893D01*
X43858Y-19912D01*
X43820Y-19912D01*
X43762Y-19893D01*
X43724Y-19855D01*
X43705Y-19817D01*
X43686Y-19740D01*
X43686Y-19683D01*
X43705Y-19607D01*
X43724Y-19569D01*
X43762Y-19531D01*
X43820Y-19512D01*
X43858Y-19512D01*
X43915Y-19531D01*
X43934Y-19550D01*
X44315Y-19912D02*
X44086Y-19912D01*
X44200Y-19912D02*
X44200Y-19512D01*
X44162Y-19569D01*
X44124Y-19607D01*
X44086Y-19626D01*
X45162Y-21619D02*
X45162Y-21848D01*
X45162Y-21734D02*
X44762Y-21734D01*
X44819Y-21772D01*
X44857Y-21810D01*
X44876Y-21848D01*
X44762Y-21372D02*
X44762Y-21333D01*
X44781Y-21295D01*
X44800Y-21276D01*
X44838Y-21257D01*
X44914Y-21238D01*
X45010Y-21238D01*
X45086Y-21257D01*
X45124Y-21276D01*
X45143Y-21295D01*
X45162Y-21333D01*
X45162Y-21372D01*
X45143Y-21410D01*
X45124Y-21429D01*
X45086Y-21448D01*
X45010Y-21467D01*
X44914Y-21467D01*
X44838Y-21448D01*
X44800Y-21429D01*
X44781Y-21410D01*
X44762Y-21372D01*
X44762Y-20991D02*
X44762Y-20952D01*
X44781Y-20914D01*
X44800Y-20895D01*
X44838Y-20876D01*
X44914Y-20857D01*
X45010Y-20857D01*
X45086Y-20876D01*
X45124Y-20895D01*
X45143Y-20914D01*
X45162Y-20952D01*
X45162Y-20991D01*
X45143Y-21029D01*
X45124Y-21048D01*
X45086Y-21067D01*
X45010Y-21086D01*
X44914Y-21086D01*
X44838Y-21067D01*
X44800Y-21048D01*
X44781Y-21029D01*
X44762Y-20991D01*
X44895Y-20686D02*
X45162Y-20686D01*
X44933Y-20686D02*
X44914Y-20667D01*
X44895Y-20629D01*
X44895Y-20571D01*
X44914Y-20533D01*
X44952Y-20514D01*
X45162Y-20514D01*
X44952Y-20190D02*
X44952Y-20324D01*
X45162Y-20324D02*
X44762Y-20324D01*
X44762Y-20133D01*
X23434Y-19624D02*
X23415Y-19643D01*
X23358Y-19662D01*
X23320Y-19662D01*
X23262Y-19643D01*
X23224Y-19605D01*
X23205Y-19567D01*
X23186Y-19490D01*
X23186Y-19433D01*
X23205Y-19357D01*
X23224Y-19319D01*
X23262Y-19281D01*
X23320Y-19262D01*
X23358Y-19262D01*
X23415Y-19281D01*
X23434Y-19300D01*
X23796Y-19262D02*
X23605Y-19262D01*
X23586Y-19452D01*
X23605Y-19433D01*
X23643Y-19414D01*
X23739Y-19414D01*
X23777Y-19433D01*
X23796Y-19452D01*
X23815Y-19490D01*
X23815Y-19586D01*
X23796Y-19624D01*
X23777Y-19643D01*
X23739Y-19662D01*
X23643Y-19662D01*
X23605Y-19643D01*
X23586Y-19624D01*
X24662Y-21619D02*
X24662Y-21848D01*
X24662Y-21734D02*
X24262Y-21734D01*
X24319Y-21772D01*
X24357Y-21810D01*
X24376Y-21848D01*
X24262Y-21372D02*
X24262Y-21333D01*
X24281Y-21295D01*
X24300Y-21276D01*
X24338Y-21257D01*
X24414Y-21238D01*
X24510Y-21238D01*
X24586Y-21257D01*
X24624Y-21276D01*
X24643Y-21295D01*
X24662Y-21333D01*
X24662Y-21372D01*
X24643Y-21410D01*
X24624Y-21429D01*
X24586Y-21448D01*
X24510Y-21467D01*
X24414Y-21467D01*
X24338Y-21448D01*
X24300Y-21429D01*
X24281Y-21410D01*
X24262Y-21372D01*
X24262Y-20991D02*
X24262Y-20952D01*
X24281Y-20914D01*
X24300Y-20895D01*
X24338Y-20876D01*
X24414Y-20857D01*
X24510Y-20857D01*
X24586Y-20876D01*
X24624Y-20895D01*
X24643Y-20914D01*
X24662Y-20952D01*
X24662Y-20991D01*
X24643Y-21029D01*
X24624Y-21048D01*
X24586Y-21067D01*
X24510Y-21086D01*
X24414Y-21086D01*
X24338Y-21067D01*
X24300Y-21048D01*
X24281Y-21029D01*
X24262Y-20991D01*
X24395Y-20686D02*
X24662Y-20686D01*
X24433Y-20686D02*
X24414Y-20667D01*
X24395Y-20629D01*
X24395Y-20571D01*
X24414Y-20533D01*
X24452Y-20514D01*
X24662Y-20514D01*
X24452Y-20190D02*
X24452Y-20324D01*
X24662Y-20324D02*
X24262Y-20324D01*
X24262Y-20133D01*
X20705Y-15162D02*
X20705Y-14762D01*
X20858Y-14762D01*
X20896Y-14781D01*
X20915Y-14800D01*
X20934Y-14838D01*
X20934Y-14895D01*
X20915Y-14933D01*
X20896Y-14952D01*
X20858Y-14971D01*
X20705Y-14971D01*
X21315Y-15162D02*
X21086Y-15162D01*
X21200Y-15162D02*
X21200Y-14762D01*
X21162Y-14819D01*
X21124Y-14857D01*
X21086Y-14876D01*
G54D18*
X20143Y-33843D02*
X20629Y-33843D01*
X20686Y-33821D01*
X20714Y-33800D01*
X20743Y-33757D01*
X20743Y-33671D01*
X20714Y-33629D01*
X20686Y-33607D01*
X20629Y-33586D01*
X20143Y-33586D01*
X20743Y-33136D02*
X20743Y-33393D01*
X20743Y-33265D02*
X20143Y-33265D01*
X20229Y-33308D01*
X20286Y-33350D01*
X20314Y-33393D01*
X21143Y-33555D02*
X21143Y-33255D01*
X21743Y-33448D01*
X21143Y-32869D02*
X21143Y-33083D01*
X21429Y-33104D01*
X21400Y-33083D01*
X21371Y-33040D01*
X21371Y-32933D01*
X21400Y-32890D01*
X21429Y-32869D01*
X21486Y-32847D01*
X21629Y-32847D01*
X21686Y-32869D01*
X21714Y-32890D01*
X21743Y-32933D01*
X21743Y-33040D01*
X21714Y-33083D01*
X21686Y-33104D01*
X21571Y-32675D02*
X21571Y-32461D01*
X21743Y-32718D02*
X21143Y-32568D01*
X21743Y-32418D01*
X21743Y-32054D02*
X21743Y-32268D01*
X21143Y-32268D01*
X21714Y-31925D02*
X21743Y-31861D01*
X21743Y-31754D01*
X21714Y-31711D01*
X21686Y-31690D01*
X21629Y-31668D01*
X21571Y-31668D01*
X21514Y-31690D01*
X21486Y-31711D01*
X21457Y-31754D01*
X21429Y-31840D01*
X21400Y-31882D01*
X21371Y-31904D01*
X21314Y-31925D01*
X21257Y-31925D01*
X21200Y-31904D01*
X21171Y-31882D01*
X21143Y-31840D01*
X21143Y-31732D01*
X21171Y-31668D01*
X21743Y-31239D02*
X21743Y-31496D01*
X21743Y-31368D02*
X21143Y-31368D01*
X21229Y-31411D01*
X21286Y-31453D01*
X21314Y-31496D01*
X21743Y-31024D02*
X21743Y-30939D01*
X21714Y-30896D01*
X21686Y-30874D01*
X21600Y-30832D01*
X21486Y-30810D01*
X21257Y-30810D01*
X21200Y-30832D01*
X21171Y-30853D01*
X21143Y-30896D01*
X21143Y-30982D01*
X21171Y-31024D01*
X21200Y-31046D01*
X21257Y-31067D01*
X21400Y-31067D01*
X21457Y-31046D01*
X21486Y-31024D01*
X21514Y-30982D01*
X21514Y-30896D01*
X21486Y-30853D01*
X21457Y-30832D01*
X21400Y-30810D01*
X21200Y-30638D02*
X21171Y-30617D01*
X21143Y-30574D01*
X21143Y-30467D01*
X21171Y-30424D01*
X21200Y-30403D01*
X21257Y-30381D01*
X21314Y-30381D01*
X21400Y-30403D01*
X21743Y-30660D01*
X21743Y-30381D01*
X21514Y-30188D02*
X21514Y-29845D01*
X21743Y-29631D02*
X21143Y-29631D01*
X21143Y-29524D01*
X21171Y-29459D01*
X21229Y-29417D01*
X21286Y-29395D01*
X21400Y-29374D01*
X21486Y-29374D01*
X21600Y-29395D01*
X21657Y-29417D01*
X21714Y-29459D01*
X21743Y-29524D01*
X21743Y-29631D01*
X21743Y-28924D02*
X21457Y-29074D01*
X21743Y-29181D02*
X21143Y-29181D01*
X21143Y-29009D01*
X21171Y-28967D01*
X21200Y-28945D01*
X21257Y-28924D01*
X21343Y-28924D01*
X21400Y-28945D01*
X21429Y-28967D01*
X21457Y-29009D01*
X21457Y-29181D01*
X21743Y-28731D02*
X21143Y-28731D01*
X21143Y-28581D02*
X21743Y-28431D01*
X21143Y-28281D01*
X21429Y-28131D02*
X21429Y-27981D01*
X21743Y-27917D02*
X21743Y-28131D01*
X21143Y-28131D01*
X21143Y-27917D01*
X21743Y-27467D02*
X21457Y-27617D01*
X21743Y-27724D02*
X21143Y-27724D01*
X21143Y-27552D01*
X21171Y-27510D01*
X21200Y-27488D01*
X21257Y-27467D01*
X21343Y-27467D01*
X21400Y-27488D01*
X21429Y-27510D01*
X21457Y-27552D01*
X21457Y-27724D01*
G54D17*
X23574Y-38058D02*
X23593Y-38074D01*
X23612Y-38124D01*
X23612Y-38158D01*
X23593Y-38208D01*
X23555Y-38241D01*
X23517Y-38258D01*
X23440Y-38274D01*
X23383Y-38274D01*
X23307Y-38258D01*
X23269Y-38241D01*
X23231Y-38208D01*
X23212Y-38158D01*
X23212Y-38124D01*
X23231Y-38074D01*
X23250Y-38058D01*
X23212Y-37941D02*
X23212Y-37724D01*
X23364Y-37841D01*
X23364Y-37791D01*
X23383Y-37758D01*
X23402Y-37741D01*
X23440Y-37724D01*
X23536Y-37724D01*
X23574Y-37741D01*
X23593Y-37758D01*
X23612Y-37791D01*
X23612Y-37891D01*
X23593Y-37924D01*
X23574Y-37941D01*
X25111Y-38541D02*
X25111Y-38741D01*
X25111Y-38641D02*
X24711Y-38641D01*
X24768Y-38675D01*
X24806Y-38708D01*
X24825Y-38741D01*
X24711Y-38325D02*
X24711Y-38292D01*
X24730Y-38258D01*
X24749Y-38242D01*
X24787Y-38225D01*
X24863Y-38208D01*
X24959Y-38208D01*
X25035Y-38225D01*
X25073Y-38242D01*
X25092Y-38258D01*
X25111Y-38292D01*
X25111Y-38325D01*
X25092Y-38358D01*
X25073Y-38375D01*
X25035Y-38392D01*
X24959Y-38408D01*
X24863Y-38408D01*
X24787Y-38392D01*
X24749Y-38375D01*
X24730Y-38358D01*
X24711Y-38325D01*
X24711Y-37992D02*
X24711Y-37959D01*
X24730Y-37925D01*
X24749Y-37909D01*
X24787Y-37892D01*
X24863Y-37875D01*
X24959Y-37875D01*
X25035Y-37892D01*
X25073Y-37909D01*
X25092Y-37925D01*
X25111Y-37959D01*
X25111Y-37992D01*
X25092Y-38025D01*
X25073Y-38042D01*
X25035Y-38059D01*
X24959Y-38075D01*
X24863Y-38075D01*
X24787Y-38059D01*
X24749Y-38042D01*
X24730Y-38025D01*
X24711Y-37992D01*
X24844Y-37576D02*
X25111Y-37576D01*
X24844Y-37726D02*
X25054Y-37726D01*
X25092Y-37709D01*
X25111Y-37676D01*
X25111Y-37626D01*
X25092Y-37592D01*
X25073Y-37576D01*
X24901Y-37292D02*
X24901Y-37409D01*
X25111Y-37409D02*
X24711Y-37409D01*
X24711Y-37242D01*
X24264Y-37029D02*
X24264Y-36572D01*
X24493Y-36801D02*
X24036Y-36801D01*
X20834Y-38024D02*
X20815Y-38043D01*
X20758Y-38062D01*
X20720Y-38062D01*
X20662Y-38043D01*
X20624Y-38005D01*
X20605Y-37967D01*
X20586Y-37890D01*
X20586Y-37833D01*
X20605Y-37757D01*
X20624Y-37719D01*
X20662Y-37681D01*
X20720Y-37662D01*
X20758Y-37662D01*
X20815Y-37681D01*
X20834Y-37700D01*
X20986Y-37700D02*
X21005Y-37681D01*
X21043Y-37662D01*
X21139Y-37662D01*
X21177Y-37681D01*
X21196Y-37700D01*
X21215Y-37738D01*
X21215Y-37776D01*
X21196Y-37833D01*
X20967Y-38062D01*
X21215Y-38062D01*
X20553Y-36162D02*
X20324Y-36162D01*
X20438Y-36162D02*
X20438Y-35762D01*
X20400Y-35819D01*
X20362Y-35857D01*
X20324Y-35876D01*
X20800Y-35762D02*
X20839Y-35762D01*
X20877Y-35781D01*
X20896Y-35800D01*
X20915Y-35838D01*
X20934Y-35914D01*
X20934Y-36010D01*
X20915Y-36086D01*
X20896Y-36124D01*
X20877Y-36143D01*
X20839Y-36162D01*
X20800Y-36162D01*
X20762Y-36143D01*
X20743Y-36124D01*
X20724Y-36086D01*
X20705Y-36010D01*
X20705Y-35914D01*
X20724Y-35838D01*
X20743Y-35800D01*
X20762Y-35781D01*
X20800Y-35762D01*
X21181Y-35762D02*
X21220Y-35762D01*
X21258Y-35781D01*
X21277Y-35800D01*
X21296Y-35838D01*
X21315Y-35914D01*
X21315Y-36010D01*
X21296Y-36086D01*
X21277Y-36124D01*
X21258Y-36143D01*
X21220Y-36162D01*
X21181Y-36162D01*
X21143Y-36143D01*
X21124Y-36124D01*
X21105Y-36086D01*
X21086Y-36010D01*
X21086Y-35914D01*
X21105Y-35838D01*
X21124Y-35800D01*
X21143Y-35781D01*
X21181Y-35762D01*
X21486Y-35895D02*
X21486Y-36162D01*
X21486Y-35933D02*
X21505Y-35914D01*
X21543Y-35895D01*
X21601Y-35895D01*
X21639Y-35914D01*
X21658Y-35952D01*
X21658Y-36162D01*
X33934Y-19624D02*
X33915Y-19643D01*
X33858Y-19662D01*
X33820Y-19662D01*
X33762Y-19643D01*
X33724Y-19605D01*
X33705Y-19567D01*
X33686Y-19490D01*
X33686Y-19433D01*
X33705Y-19357D01*
X33724Y-19319D01*
X33762Y-19281D01*
X33820Y-19262D01*
X33858Y-19262D01*
X33915Y-19281D01*
X33934Y-19300D01*
X34277Y-19395D02*
X34277Y-19662D01*
X34181Y-19243D02*
X34086Y-19529D01*
X34334Y-19529D01*
X35062Y-21447D02*
X35062Y-21676D01*
X35062Y-21562D02*
X34662Y-21562D01*
X34719Y-21600D01*
X34757Y-21638D01*
X34776Y-21676D01*
X34662Y-21200D02*
X34662Y-21161D01*
X34681Y-21123D01*
X34700Y-21104D01*
X34738Y-21085D01*
X34814Y-21066D01*
X34910Y-21066D01*
X34986Y-21085D01*
X35024Y-21104D01*
X35043Y-21123D01*
X35062Y-21161D01*
X35062Y-21200D01*
X35043Y-21238D01*
X35024Y-21257D01*
X34986Y-21276D01*
X34910Y-21295D01*
X34814Y-21295D01*
X34738Y-21276D01*
X34700Y-21257D01*
X34681Y-21238D01*
X34662Y-21200D01*
X34662Y-20819D02*
X34662Y-20780D01*
X34681Y-20742D01*
X34700Y-20723D01*
X34738Y-20704D01*
X34814Y-20685D01*
X34910Y-20685D01*
X34986Y-20704D01*
X35024Y-20723D01*
X35043Y-20742D01*
X35062Y-20780D01*
X35062Y-20819D01*
X35043Y-20857D01*
X35024Y-20876D01*
X34986Y-20895D01*
X34910Y-20914D01*
X34814Y-20914D01*
X34738Y-20895D01*
X34700Y-20876D01*
X34681Y-20857D01*
X34662Y-20819D01*
X34795Y-20514D02*
X35062Y-20514D01*
X34833Y-20514D02*
X34814Y-20495D01*
X34795Y-20457D01*
X34795Y-20399D01*
X34814Y-20361D01*
X34852Y-20342D01*
X35062Y-20342D01*
G54D14*
X43424Y-22143D02*
X43233Y-22143D01*
X43214Y-22429D01*
X43233Y-22400D01*
X43271Y-22371D01*
X43367Y-22371D01*
X43405Y-22400D01*
X43424Y-22429D01*
X43443Y-22486D01*
X43443Y-22629D01*
X43424Y-22686D01*
X43405Y-22714D01*
X43367Y-22743D01*
X43271Y-22743D01*
X43233Y-22714D01*
X43214Y-22686D01*
X43557Y-22143D02*
X43690Y-22743D01*
X43824Y-22143D01*
X48196Y-22171D02*
X48158Y-22143D01*
X48101Y-22143D01*
X48043Y-22171D01*
X48005Y-22229D01*
X47986Y-22286D01*
X47967Y-22400D01*
X47967Y-22486D01*
X47986Y-22600D01*
X48005Y-22657D01*
X48043Y-22714D01*
X48101Y-22743D01*
X48139Y-22743D01*
X48196Y-22714D01*
X48215Y-22686D01*
X48215Y-22486D01*
X48139Y-22486D01*
X48386Y-22743D02*
X48386Y-22143D01*
X48615Y-22743D01*
X48615Y-22143D01*
X48805Y-22743D02*
X48805Y-22143D01*
X48900Y-22143D01*
X48958Y-22171D01*
X48996Y-22229D01*
X49015Y-22286D01*
X49034Y-22400D01*
X49034Y-22486D01*
X49015Y-22600D01*
X48996Y-22657D01*
X48958Y-22714D01*
X48900Y-22743D01*
X48805Y-22743D01*
X45505Y-22143D02*
X45753Y-22143D01*
X45619Y-22371D01*
X45677Y-22371D01*
X45715Y-22400D01*
X45734Y-22429D01*
X45753Y-22486D01*
X45753Y-22629D01*
X45734Y-22686D01*
X45715Y-22714D01*
X45677Y-22743D01*
X45562Y-22743D01*
X45524Y-22714D01*
X45505Y-22686D01*
X45867Y-22143D02*
X46000Y-22743D01*
X46134Y-22143D01*
X46229Y-22143D02*
X46477Y-22143D01*
X46343Y-22371D01*
X46401Y-22371D01*
X46439Y-22400D01*
X46458Y-22429D01*
X46477Y-22486D01*
X46477Y-22629D01*
X46458Y-22686D01*
X46439Y-22714D01*
X46401Y-22743D01*
X46286Y-22743D01*
X46248Y-22714D01*
X46229Y-22686D01*
G54D17*
X22935Y-40159D02*
X22804Y-39972D01*
X22710Y-40159D02*
X22710Y-39765D01*
X22860Y-39765D01*
X22897Y-39784D01*
X22916Y-39803D01*
X22935Y-39841D01*
X22935Y-39897D01*
X22916Y-39934D01*
X22897Y-39953D01*
X22860Y-39972D01*
X22710Y-39972D01*
X23085Y-39803D02*
X23104Y-39784D01*
X23141Y-39765D01*
X23235Y-39765D01*
X23273Y-39784D01*
X23291Y-39803D01*
X23310Y-39841D01*
X23310Y-39878D01*
X23291Y-39934D01*
X23066Y-40159D01*
X23310Y-40159D01*
X19541Y-40159D02*
X19316Y-40159D01*
X19429Y-40159D02*
X19429Y-39765D01*
X19391Y-39822D01*
X19354Y-39859D01*
X19316Y-39878D01*
X19785Y-39765D02*
X19822Y-39765D01*
X19860Y-39784D01*
X19879Y-39803D01*
X19897Y-39841D01*
X19916Y-39916D01*
X19916Y-40009D01*
X19897Y-40084D01*
X19879Y-40122D01*
X19860Y-40141D01*
X19822Y-40159D01*
X19785Y-40159D01*
X19747Y-40141D01*
X19729Y-40122D01*
X19710Y-40084D01*
X19691Y-40009D01*
X19691Y-39916D01*
X19710Y-39841D01*
X19729Y-39803D01*
X19747Y-39784D01*
X19785Y-39765D01*
X20160Y-39765D02*
X20197Y-39765D01*
X20235Y-39784D01*
X20254Y-39803D01*
X20272Y-39841D01*
X20291Y-39916D01*
X20291Y-40009D01*
X20272Y-40084D01*
X20254Y-40122D01*
X20235Y-40141D01*
X20197Y-40159D01*
X20160Y-40159D01*
X20122Y-40141D01*
X20104Y-40122D01*
X20085Y-40084D01*
X20066Y-40009D01*
X20066Y-39916D01*
X20085Y-39841D01*
X20104Y-39803D01*
X20122Y-39784D01*
X20160Y-39765D01*
X20685Y-40159D02*
X20554Y-39972D01*
X20460Y-40159D02*
X20460Y-39765D01*
X20610Y-39765D01*
X20647Y-39784D01*
X20666Y-39803D01*
X20685Y-39841D01*
X20685Y-39897D01*
X20666Y-39934D01*
X20647Y-39953D01*
X20610Y-39972D01*
X20460Y-39972D01*
G54D10*
X13124Y-40990D02*
X13143Y-41009D01*
X13162Y-41066D01*
X13162Y-41104D01*
X13143Y-41162D01*
X13105Y-41200D01*
X13067Y-41219D01*
X12990Y-41238D01*
X12933Y-41238D01*
X12857Y-41219D01*
X12819Y-41200D01*
X12781Y-41162D01*
X12762Y-41104D01*
X12762Y-41066D01*
X12781Y-41009D01*
X12800Y-40990D01*
X13048Y-40838D02*
X13048Y-40647D01*
X13162Y-40876D02*
X12762Y-40743D01*
X13162Y-40609D01*
X13162Y-40476D02*
X12762Y-40476D01*
X12762Y-40323D01*
X12781Y-40285D01*
X12800Y-40266D01*
X12838Y-40247D01*
X12895Y-40247D01*
X12933Y-40266D01*
X12952Y-40285D01*
X12971Y-40323D01*
X12971Y-40476D01*
X12762Y-40133D02*
X12762Y-39904D01*
X13162Y-40019D02*
X12762Y-40019D01*
X12762Y-39771D02*
X13086Y-39771D01*
X13124Y-39752D01*
X13143Y-39733D01*
X13162Y-39695D01*
X13162Y-39618D01*
X13143Y-39580D01*
X13124Y-39561D01*
X13086Y-39542D01*
X12762Y-39542D01*
X13162Y-39123D02*
X12971Y-39257D01*
X13162Y-39352D02*
X12762Y-39352D01*
X12762Y-39199D01*
X12781Y-39161D01*
X12800Y-39142D01*
X12838Y-39123D01*
X12895Y-39123D01*
X12933Y-39142D01*
X12952Y-39161D01*
X12971Y-39199D01*
X12971Y-39352D01*
X12952Y-38952D02*
X12952Y-38818D01*
X13162Y-38761D02*
X13162Y-38952D01*
X12762Y-38952D01*
X12762Y-38761D01*
G54D17*
X23662Y-29486D02*
X23262Y-29486D01*
X23262Y-29333D01*
X23281Y-29295D01*
X23300Y-29276D01*
X23338Y-29257D01*
X23395Y-29257D01*
X23433Y-29276D01*
X23452Y-29295D01*
X23471Y-29333D01*
X23471Y-29486D01*
X23300Y-29105D02*
X23281Y-29086D01*
X23262Y-29048D01*
X23262Y-28952D01*
X23281Y-28914D01*
X23300Y-28895D01*
X23338Y-28876D01*
X23376Y-28876D01*
X23433Y-28895D01*
X23662Y-29124D01*
X23662Y-28876D01*
X23262Y-28533D02*
X23262Y-28610D01*
X23281Y-28648D01*
X23300Y-28667D01*
X23357Y-28705D01*
X23433Y-28724D01*
X23586Y-28724D01*
X23624Y-28705D01*
X23643Y-28686D01*
X23662Y-28648D01*
X23662Y-28571D01*
X23643Y-28533D01*
X23624Y-28514D01*
X23586Y-28495D01*
X23490Y-28495D01*
X23452Y-28514D01*
X23433Y-28533D01*
X23414Y-28571D01*
X23414Y-28648D01*
X23433Y-28686D01*
X23452Y-28705D01*
X23490Y-28724D01*
G54D11*
X13772Y-18743D02*
X13772Y-18143D01*
X14000Y-18143D01*
X14058Y-18171D01*
X14086Y-18200D01*
X14115Y-18257D01*
X14115Y-18343D01*
X14086Y-18400D01*
X14058Y-18429D01*
X14000Y-18457D01*
X13772Y-18457D01*
X14343Y-18200D02*
X14372Y-18171D01*
X14429Y-18143D01*
X14572Y-18143D01*
X14629Y-18171D01*
X14658Y-18200D01*
X14686Y-18257D01*
X14686Y-18314D01*
X14658Y-18400D01*
X14315Y-18743D01*
X14686Y-18743D01*
X14886Y-18143D02*
X15286Y-18143D01*
X15029Y-18743D01*
X12679Y-27657D02*
X12679Y-27457D01*
X12993Y-27371D02*
X12993Y-27657D01*
X12393Y-27657D01*
X12393Y-27371D01*
X12993Y-27114D02*
X12393Y-27114D01*
X12993Y-26771D01*
X12393Y-26771D01*
X12936Y-26142D02*
X12964Y-26171D01*
X12993Y-26257D01*
X12993Y-26314D01*
X12964Y-26399D01*
X12907Y-26457D01*
X12850Y-26485D01*
X12736Y-26514D01*
X12650Y-26514D01*
X12536Y-26485D01*
X12479Y-26457D01*
X12421Y-26399D01*
X12393Y-26314D01*
X12393Y-26257D01*
X12421Y-26171D01*
X12450Y-26142D01*
X12393Y-25771D02*
X12393Y-25657D01*
X12421Y-25599D01*
X12479Y-25542D01*
X12593Y-25514D01*
X12793Y-25514D01*
X12907Y-25542D01*
X12964Y-25599D01*
X12993Y-25657D01*
X12993Y-25771D01*
X12964Y-25828D01*
X12907Y-25885D01*
X12793Y-25914D01*
X12593Y-25914D01*
X12479Y-25885D01*
X12421Y-25828D01*
X12393Y-25771D01*
X12993Y-25256D02*
X12393Y-25256D01*
X12393Y-25113D01*
X12421Y-25028D01*
X12479Y-24970D01*
X12536Y-24942D01*
X12650Y-24913D01*
X12736Y-24913D01*
X12850Y-24942D01*
X12907Y-24970D01*
X12964Y-25028D01*
X12993Y-25113D01*
X12993Y-25256D01*
X12679Y-24656D02*
X12679Y-24456D01*
X12993Y-24370D02*
X12993Y-24656D01*
X12393Y-24656D01*
X12393Y-24370D01*
X12993Y-23770D02*
X12707Y-23970D01*
X12993Y-24113D02*
X12393Y-24113D01*
X12393Y-23885D01*
X12421Y-23827D01*
X12450Y-23799D01*
X12507Y-23770D01*
X12593Y-23770D01*
X12650Y-23799D01*
X12679Y-23827D01*
X12707Y-23885D01*
X12707Y-24113D01*
X13050Y-23656D02*
X13050Y-23199D01*
M02*
